<?xml version="1.0" encoding="utf-8"?>
<!-- Generator: Adobe Illustrator 24.3.0, SVG Export Plug-In . SVG Version: 6.00 Build 0)  -->
<svg version="1.1" id="Layer_1" xmlns="http://www.w3.org/2000/svg" xmlns:xlink="http://www.w3.org/1999/xlink" x="0px" y="0px"
	 viewBox="0 0 180 180" enable-background="new 0 0 180 180" xml:space="preserve">
<g>
	<g id="XMLID_2441_">
		<path fill="#FFDB76" d="M154.622,90.001c0,35.689-28.933,64.621-64.623,64.621c-35.689,0-64.621-28.932-64.621-64.621
			c0-35.691,28.932-64.623,64.621-64.623C125.69,25.378,154.622,54.31,154.622,90.001z"/>
	</g>
	<g>
		<g id="XMLID_2432_">
			<g id="XMLID_2440_">
				<path fill="#323136" d="M57.594,106.147c0-0.631,0.512-1.143,1.143-1.143c0.631,0,1.143,0.512,1.143,1.143
					c0,0.631-0.511,1.143-1.143,1.143C58.106,107.29,57.594,106.778,57.594,106.147z"/>
			</g>
			<g id="XMLID_2433_">
				<g id="XMLID_2438_">
					<g id="XMLID_2439_">
						<path fill="#323136" d="M60.694,106.147c0-0.146,0.118-0.264,0.264-0.264h0.703c0.146,0,0.264,0.117,0.264,0.264
							c0,0.146-0.118,0.264-0.264,0.264h-0.703C60.812,106.411,60.694,106.294,60.694,106.147z"/>
					</g>
				</g>
				<g id="XMLID_2434_">
					<g id="XMLID_2435_">
						<path fill="#323136" d="M63.44,106.147c0-0.146,0.118-0.264,0.264-0.264h1.362c0.146,0,0.263,0.117,0.263,0.264
							c0,0.146-0.118,0.264-0.263,0.264h-1.362C63.558,106.411,63.44,106.294,63.44,106.147z M66.845,106.147
							c0-0.146,0.118-0.264,0.263-0.264h1.362c0.146,0,0.264,0.117,0.264,0.264c0,0.146-0.118,0.264-0.264,0.264h-1.362
							C66.963,106.411,66.845,106.294,66.845,106.147z"/>
					</g>
				</g>
			</g>
		</g>
		<g id="XMLID_2423_">
			<g id="XMLID_2431_">
				<path fill="#323136" d="M57.594,74.956c0-0.631,0.512-1.143,1.143-1.143c0.631,0,1.143,0.512,1.143,1.143
					c0,0.631-0.511,1.141-1.143,1.141C58.106,76.097,57.594,75.587,57.594,74.956z"/>
			</g>
			<g id="XMLID_2424_">
				<g id="XMLID_2429_">
					<g id="XMLID_2430_">
						<path fill="#323136" d="M60.694,74.956c0-0.146,0.118-0.264,0.264-0.264h0.703c0.146,0,0.264,0.117,0.264,0.264
							c0,0.145-0.118,0.264-0.264,0.264h-0.703C60.812,75.22,60.694,75.101,60.694,74.956z"/>
					</g>
				</g>
				<g id="XMLID_2425_">
					<g id="XMLID_2426_">
						<path fill="#323136" d="M63.44,74.956c0-0.146,0.118-0.264,0.264-0.264h1.362c0.146,0,0.263,0.117,0.263,0.264
							c0,0.145-0.118,0.264-0.263,0.264h-1.362C63.558,75.22,63.44,75.101,63.44,74.956z M66.845,74.956
							c0-0.146,0.118-0.264,0.263-0.264h1.362c0.146,0,0.264,0.117,0.264,0.264c0,0.145-0.118,0.264-0.264,0.264h-1.362
							C66.963,75.22,66.845,75.101,66.845,74.956z"/>
					</g>
				</g>
			</g>
		</g>
		<g id="XMLID_2413_">
			<g id="XMLID_2422_">
				<path fill="#323136" d="M121.768,68.265c0-0.631-0.511-1.143-1.143-1.143c-0.63,0-1.142,0.512-1.142,1.143
					c0,0.631,0.511,1.143,1.142,1.143C121.257,69.407,121.768,68.896,121.768,68.265z"/>
			</g>
			<g id="XMLID_2415_">
				<g id="XMLID_2420_">
					<g id="XMLID_2421_">
						<path fill="#323136" d="M118.669,68.265c0-0.145-0.118-0.264-0.264-0.264h-0.704c-0.146,0-0.264,0.119-0.264,0.264
							c0,0.146,0.118,0.264,0.264,0.264h0.704C118.55,68.528,118.669,68.411,118.669,68.265z"/>
					</g>
				</g>
				<g id="XMLID_2416_">
					<g id="XMLID_2417_">
						<path fill="#323136" d="M115.658,68.528h-1.362c-0.146,0-0.264-0.117-0.264-0.264c0-0.145,0.118-0.264,0.264-0.264h1.362
							c0.146,0,0.264,0.119,0.264,0.264C115.923,68.411,115.804,68.528,115.658,68.528z M112.254,68.528h-1.362
							c-0.145,0-0.263-0.117-0.263-0.264c0-0.145,0.118-0.264,0.263-0.264h1.362c0.145,0,0.264,0.119,0.264,0.264
							C112.517,68.411,112.399,68.528,112.254,68.528z"/>
					</g>
				</g>
			</g>
		</g>
		<g id="XMLID_2184_">
			<g id="XMLID_2412_">
				<path fill="#323136" d="M121.768,90.819c0-0.631-0.511-1.142-1.143-1.142c-0.63,0-1.142,0.512-1.142,1.142
					c0,0.631,0.511,1.143,1.142,1.143C121.257,91.962,121.768,91.45,121.768,90.819z"/>
			</g>
			<g id="XMLID_2185_">
				<g id="XMLID_2191_">
					<g id="XMLID_2411_">
						<path fill="#323136" d="M118.669,90.819c0-0.145-0.118-0.264-0.264-0.264h-0.704c-0.146,0-0.264,0.119-0.264,0.264
							c0,0.146,0.118,0.266,0.264,0.266h0.704C118.55,91.085,118.669,90.966,118.669,90.819z"/>
					</g>
				</g>
				<g id="XMLID_2186_">
					<g id="XMLID_2187_">
						<path fill="#323136" d="M115.658,91.085h-1.362c-0.146,0-0.264-0.119-0.264-0.266c0-0.145,0.118-0.264,0.264-0.264h1.362
							c0.146,0,0.264,0.119,0.264,0.264C115.923,90.966,115.804,91.085,115.658,91.085z M112.254,91.085h-1.362
							c-0.145,0-0.263-0.119-0.263-0.266c0-0.145,0.118-0.264,0.263-0.264h1.362c0.145,0,0.264,0.119,0.264,0.264
							C112.517,90.966,112.399,91.085,112.254,91.085z"/>
					</g>
				</g>
			</g>
		</g>
		<g id="XMLID_2175_">
			<g id="XMLID_2183_">
				<path fill="#323136" d="M121.768,114.501c0-0.631-0.511-1.143-1.143-1.143c-0.63,0-1.142,0.512-1.142,1.143
					c0,0.631,0.511,1.143,1.142,1.143C121.257,115.644,121.768,115.132,121.768,114.501z"/>
			</g>
			<g id="XMLID_2176_">
				<g id="XMLID_2181_">
					<g id="XMLID_2182_">
						<path fill="#323136" d="M118.669,114.501c0-0.146-0.118-0.264-0.264-0.264h-0.704c-0.146,0-0.264,0.117-0.264,0.264
							c0,0.145,0.118,0.264,0.264,0.264h0.704C118.55,114.765,118.669,114.646,118.669,114.501z"/>
					</g>
				</g>
				<g id="XMLID_2177_">
					<g id="XMLID_2178_">
						<path fill="#323136" d="M115.658,114.765h-1.362c-0.146,0-0.264-0.119-0.264-0.264c0-0.146,0.118-0.264,0.264-0.264h1.362
							c0.146,0,0.264,0.117,0.264,0.264C115.923,114.646,115.804,114.765,115.658,114.765z M112.254,114.765h-1.362
							c-0.145,0-0.263-0.119-0.263-0.264c0-0.146,0.118-0.264,0.263-0.264h1.362c0.145,0,0.264,0.117,0.264,0.264
							C112.517,114.646,112.399,114.765,112.254,114.765z"/>
					</g>
				</g>
			</g>
		</g>
		<g id="XMLID_2158_">
			<g id="XMLID_2174_">
				<circle fill="#323136" cx="108.385" cy="132.657" r="1.142"/>
			</g>
			<g id="XMLID_2163_">
				<g id="XMLID_2172_">
					<g id="XMLID_2173_">
						<path fill="#323136" d="M111.31,132.923h-0.704c-0.145,0-0.263-0.119-0.263-0.266c0-0.145,0.118-0.264,0.263-0.264h0.704
							c0.146,0,0.263,0.119,0.263,0.264C111.573,132.804,111.455,132.923,111.31,132.923z"/>
					</g>
				</g>
				<g id="XMLID_2166_">
					<g id="XMLID_2167_">
						<path fill="#323136" d="M116.9,132.923h-1.118c-0.146,0-0.265-0.119-0.265-0.266c0-0.145,0.118-0.264,0.265-0.264h1.118
							c0.146,0,0.264,0.119,0.264,0.264C117.164,132.804,117.046,132.923,116.9,132.923z M114.104,132.923h-1.118
							c-0.145,0-0.264-0.119-0.264-0.266c0-0.145,0.119-0.264,0.264-0.264h1.118c0.146,0,0.264,0.119,0.264,0.264
							C114.368,132.804,114.25,132.923,114.104,132.923z"/>
					</g>
				</g>
				<g id="XMLID_2164_">
					<g id="XMLID_2165_">
						<path fill="#323136" d="M119.28,132.923h-0.703c-0.146,0-0.264-0.119-0.264-0.266c0-0.145,0.118-0.264,0.264-0.264h0.703
							c0.146,0,0.264,0.119,0.264,0.264C119.544,132.804,119.425,132.923,119.28,132.923z"/>
					</g>
				</g>
			</g>
			<g id="XMLID_2161_">
				<g id="XMLID_2162_">
					<path fill="#323136" d="M123.059,134.645h-4.878c-0.146,0-0.264-0.117-0.264-0.264c0-0.146,0.118-0.264,0.264-0.264h4.878
						c0.146,0,0.264,0.117,0.264,0.264C123.324,134.528,123.205,134.645,123.059,134.645z"/>
				</g>
			</g>
			<g id="XMLID_2159_">
				<g id="XMLID_2160_">
					<path fill="#323136" d="M124.949,136.167h-3.193c-0.146,0-0.264-0.117-0.264-0.264c0-0.145,0.118-0.264,0.264-0.264h3.193
						c0.146,0,0.264,0.119,0.264,0.264C125.213,136.05,125.095,136.167,124.949,136.167z"/>
				</g>
			</g>
		</g>
		<g id="XMLID_2144_">
			<g id="XMLID_2149_">
				<g id="XMLID_2156_">
					<g id="XMLID_2157_">
						<path fill="#323136" d="M37.198,88.45h-0.703c-0.146,0-0.264-0.117-0.264-0.264c0-0.145,0.118-0.264,0.264-0.264h0.703
							c0.146,0,0.264,0.119,0.264,0.264C37.462,88.333,37.344,88.45,37.198,88.45z"/>
					</g>
				</g>
				<g id="XMLID_2152_">
					<g id="XMLID_2153_">
						<path fill="#323136" d="M42.789,88.45H41.67c-0.146,0-0.264-0.117-0.264-0.264c0-0.145,0.118-0.264,0.264-0.264h1.119
							c0.145,0,0.264,0.119,0.264,0.264C43.053,88.333,42.934,88.45,42.789,88.45z M39.993,88.45h-1.118
							c-0.146,0-0.264-0.117-0.264-0.264c0-0.145,0.118-0.264,0.264-0.264h1.118c0.146,0,0.265,0.119,0.265,0.264
							C40.258,88.333,40.139,88.45,39.993,88.45z"/>
					</g>
				</g>
				<g id="XMLID_2150_">
					<g id="XMLID_2151_">
						<path fill="#323136" d="M45.169,88.45h-0.704c-0.145,0-0.264-0.117-0.264-0.264c0-0.145,0.119-0.264,0.264-0.264h0.704
							c0.146,0,0.264,0.119,0.264,0.264C45.432,88.333,45.314,88.45,45.169,88.45z"/>
					</g>
				</g>
			</g>
			<g id="XMLID_2147_">
				<g id="XMLID_2148_">
					<path fill="#323136" d="M48.948,86.728H44.07c-0.146,0-0.264-0.119-0.264-0.266c0-0.145,0.118-0.264,0.264-0.264h4.877
						c0.146,0,0.264,0.119,0.264,0.264C49.211,86.608,49.094,86.728,48.948,86.728z"/>
				</g>
			</g>
			<g id="XMLID_2145_">
				<g id="XMLID_2146_">
					<path fill="#323136" d="M50.838,85.204h-3.194c-0.145,0-0.263-0.117-0.263-0.262c0-0.146,0.118-0.266,0.263-0.266h3.194
						c0.145,0,0.264,0.119,0.264,0.266C51.101,85.087,50.983,85.204,50.838,85.204z"/>
				</g>
			</g>
		</g>
		<g id="XMLID_2117_">
			<g id="XMLID_2131_">
				<g id="XMLID_2142_">
					<g id="XMLID_2143_">
						<path fill="#323136" d="M55.233,132.267H54.53c-0.146,0-0.264-0.117-0.264-0.262c0-0.146,0.118-0.264,0.264-0.264h0.703
							c0.146,0,0.263,0.117,0.263,0.264C55.496,132.149,55.379,132.267,55.233,132.267z"/>
					</g>
				</g>
				<g id="XMLID_2138_">
					<g id="XMLID_2139_">
						<path fill="#323136" d="M60.823,132.267h-1.118c-0.146,0-0.264-0.117-0.264-0.262c0-0.146,0.117-0.264,0.264-0.264h1.118
							c0.146,0,0.264,0.117,0.264,0.264C61.087,132.149,60.969,132.267,60.823,132.267z M58.029,132.267H56.91
							c-0.146,0-0.264-0.117-0.264-0.262c0-0.146,0.118-0.264,0.264-0.264h1.118c0.146,0,0.263,0.117,0.263,0.264
							C58.292,132.149,58.174,132.267,58.029,132.267z"/>
					</g>
				</g>
				<g id="XMLID_2133_">
					<g id="XMLID_2137_">
						<path fill="#323136" d="M63.203,132.267H62.5c-0.146,0-0.264-0.117-0.264-0.262c0-0.146,0.118-0.264,0.264-0.264h0.703
							c0.146,0,0.264,0.117,0.264,0.264C63.468,132.149,63.349,132.267,63.203,132.267z"/>
					</g>
				</g>
			</g>
			<g id="XMLID_2124_">
				<g id="XMLID_2128_">
					<path fill="#323136" d="M66.983,130.542h-4.878c-0.146,0-0.263-0.117-0.263-0.262c0-0.146,0.118-0.264,0.263-0.264h4.878
						c0.146,0,0.264,0.117,0.264,0.264C67.246,130.425,67.128,130.542,66.983,130.542z"/>
				</g>
			</g>
			<g id="XMLID_2120_">
				<g id="XMLID_2121_">
					<path fill="#323136" d="M68.872,129.023h-3.193c-0.145,0-0.263-0.119-0.263-0.266c0-0.145,0.118-0.262,0.263-0.262h3.193
						c0.146,0,0.264,0.117,0.264,0.262C69.136,128.903,69.017,129.023,68.872,129.023z"/>
				</g>
			</g>
		</g>
		<g>
			<g id="XMLID_2102_">
				<path fill="#FFDB76" d="M82.54,135.02c0.105,0.074,0.21,0.148,0.319,0.219c0.108,0.07,0.219,0.137,0.33,0.201l0.626-0.564
					c0.135,0.076,0.271,0.148,0.409,0.215l-0.109,0.838c0.235,0.107,0.474,0.205,0.713,0.291l0.511-0.668
					c0.147,0.049,0.295,0.092,0.443,0.135l0.048,0.842c0.25,0.062,0.501,0.115,0.755,0.156l0.38-0.754
					c0.152,0.023,0.305,0.039,0.458,0.051l0.202,0.82c0.257,0.014,0.515,0.021,0.772,0.018l0.235-0.812
					c0.153-0.008,0.307-0.02,0.458-0.035l0.351,0.768c0.255-0.031,0.51-0.074,0.762-0.127l0.081-0.838
					c0.149-0.037,0.298-0.076,0.447-0.119l0.485,0.691c0.244-0.078,0.486-0.168,0.726-0.266l-0.074-0.84
					c0.141-0.062,0.28-0.127,0.417-0.197l0.603,0.592c0.226-0.121,0.446-0.256,0.663-0.395l-0.228-0.811
					c0.127-0.086,0.253-0.178,0.375-0.273l0.702,0.471c0.198-0.162,0.392-0.332,0.58-0.51l-0.374-0.756
					c0.109-0.109,0.214-0.221,0.318-0.336l0.775,0.332c0.165-0.195,0.327-0.396,0.479-0.607l-0.506-0.676
					c0.043-0.064,0.086-0.127,0.128-0.191c0.041-0.064,0.083-0.131,0.121-0.195l0.825,0.185c0.13-0.226,0.248-0.455,0.358-0.685
					l-0.621-0.572c0.062-0.141,0.122-0.283,0.176-0.426l0.844,0.029c0.084-0.244,0.16-0.49,0.226-0.738l-0.716-0.447
					c0.036-0.148,0.068-0.303,0.095-0.453l0.833-0.125c0.039-0.254,0.069-0.51,0.087-0.766l-0.786-0.309
					c0.007-0.152,0.01-0.307,0.007-0.459l0.798-0.279c-0.01-0.26-0.026-0.516-0.056-0.771l-0.829-0.158
					c-0.021-0.15-0.047-0.303-0.077-0.455l0.734-0.418c-0.056-0.252-0.122-0.5-0.198-0.748l-0.844-0.004
					c-0.048-0.146-0.101-0.291-0.157-0.434l0.645-0.547c-0.1-0.236-0.212-0.467-0.331-0.697l-0.83,0.152
					c-0.074-0.137-0.153-0.268-0.235-0.398l0.533-0.656c-0.141-0.211-0.294-0.42-0.453-0.623l-0.789,0.301
					c-0.098-0.117-0.199-0.234-0.304-0.348l0.402-0.74c-0.179-0.184-0.365-0.361-0.56-0.531l-0.719,0.441
					c-0.118-0.098-0.239-0.191-0.364-0.285l0.259-0.801c-0.105-0.076-0.21-0.148-0.319-0.219c-0.108-0.072-0.22-0.137-0.33-0.203
					l-0.627,0.566c-0.135-0.076-0.271-0.148-0.409-0.215l0.108-0.838c-0.235-0.107-0.474-0.205-0.713-0.293l-0.512,0.67
					c-0.146-0.049-0.294-0.094-0.441-0.135l-0.048-0.842c-0.25-0.061-0.501-0.115-0.755-0.158l-0.38,0.756
					c-0.152-0.021-0.305-0.039-0.457-0.051l-0.203-0.82c-0.258-0.016-0.516-0.021-0.772-0.016l-0.234,0.811
					c-0.154,0.008-0.308,0.02-0.46,0.035l-0.35-0.768c-0.255,0.031-0.51,0.074-0.763,0.127l-0.081,0.838
					c-0.15,0.035-0.299,0.076-0.447,0.119l-0.484-0.693c-0.245,0.078-0.487,0.17-0.726,0.268l0.073,0.84
					c-0.142,0.062-0.28,0.127-0.417,0.197l-0.604-0.592c-0.226,0.123-0.447,0.254-0.664,0.395l0.228,0.812
					c-0.127,0.086-0.253,0.176-0.374,0.27l-0.702-0.469c-0.199,0.162-0.392,0.332-0.581,0.51l0.375,0.756
					c-0.11,0.107-0.214,0.219-0.317,0.336l-0.776-0.332c-0.166,0.195-0.327,0.395-0.479,0.607l0.507,0.676
					c-0.044,0.062-0.086,0.127-0.128,0.191c-0.041,0.064-0.082,0.129-0.123,0.195l-0.824-0.186c-0.13,0.227-0.248,0.455-0.357,0.686
					l0.62,0.572c-0.062,0.141-0.121,0.281-0.176,0.426l-0.843-0.029c-0.085,0.244-0.16,0.49-0.227,0.736l0.715,0.447
					c-0.035,0.15-0.067,0.303-0.094,0.453l-0.833,0.127c-0.039,0.254-0.069,0.51-0.087,0.766l0.786,0.307
					c-0.008,0.154-0.011,0.309-0.008,0.461l-0.797,0.277c0.009,0.26,0.025,0.516,0.056,0.773l0.829,0.158
					c0.021,0.15,0.046,0.303,0.076,0.453l-0.733,0.42c0.055,0.252,0.122,0.5,0.196,0.748l0.845,0.004
					c0.048,0.144,0.101,0.291,0.158,0.434l-0.645,0.547c0.1,0.236,0.213,0.467,0.331,0.697l0.83-0.152
					c0.074,0.135,0.152,0.266,0.235,0.396l-0.533,0.656c0.141,0.213,0.294,0.422,0.453,0.625l0.788-0.303
					c0.099,0.119,0.2,0.236,0.305,0.35l-0.402,0.74c0.179,0.182,0.366,0.361,0.56,0.531l0.72-0.443
					c0.118,0.1,0.24,0.193,0.364,0.285L82.54,135.02z M84.361,133.673l2.75-4.25c0.224,0.1,0.46,0.172,0.706,0.207
					c0.183,0.027,0.366,0.033,0.545,0.023l1.061,4.951C87.731,134.872,85.945,134.585,84.361,133.673z M90.227,134.431l-1.062-4.951
					c0.398-0.152,0.758-0.398,1.046-0.721l4.252,2.75C93.392,132.989,91.88,133.983,90.227,134.431z M94.91,130.817l-4.251-2.748
					c0.182-0.404,0.253-0.834,0.229-1.252l4.95-1.061C96.109,127.448,95.821,129.235,94.91,130.817z M95.666,124.952l-4.95,1.061
					c-0.151-0.395-0.396-0.756-0.722-1.047l2.75-4.252C94.224,121.786,95.219,123.298,95.666,124.952z M92.054,120.269l-2.751,4.252
					c-0.401-0.178-0.83-0.254-1.251-0.229l-1.061-4.951C88.682,119.071,90.47,119.356,92.054,120.269z M86.187,119.513l1.062,4.951
					c-0.36,0.137-0.696,0.352-0.976,0.643c-0.025,0.025-0.049,0.051-0.072,0.078l-4.25-2.75
					C83.021,120.954,84.533,119.96,86.187,119.513z M81.504,123.126l4.249,2.748c-0.177,0.396-0.253,0.828-0.229,1.254l-4.948,1.061
					C80.305,126.497,80.594,124.71,81.504,123.126z M80.749,128.991l4.947-1.06c0.136,0.357,0.351,0.691,0.644,0.975
					c0.026,0.025,0.054,0.047,0.08,0.072l-2.749,4.25C82.19,132.157,81.196,130.645,80.749,128.991z"/>
			</g>
			<g id="XMLID_2086_">
				<g id="XMLID_2098_">
					<path fill="#FFDB76" d="M68.606,117.183l0.449-0.725c0.631,0.246,1.316,0.363,2.018,0.332l0.194,0.828l1.75-0.41l-0.194-0.83
						c0.644-0.281,1.205-0.691,1.66-1.191l0.724,0.449l0.948-1.529l-0.725-0.449c0.246-0.631,0.365-1.314,0.331-2.016l0.83-0.195
						l-0.411-1.75l-0.83,0.193c-0.073-0.168-0.157-0.332-0.248-0.49c-0.255-0.441-0.576-0.834-0.945-1.17l0.448-0.725l-1.527-0.947
						l-0.449,0.725c-0.63-0.246-1.316-0.365-2.018-0.33l-0.194-0.83l-1.751,0.41l0.194,0.83c-0.644,0.281-1.205,0.691-1.661,1.191
						l-0.725-0.449l-0.947,1.527l0.725,0.451c-0.247,0.629-0.364,1.316-0.331,2.018l-0.829,0.195l0.41,1.75l0.83-0.195
						c0.074,0.17,0.157,0.332,0.247,0.49c0.255,0.441,0.576,0.834,0.945,1.17l-0.449,0.725L68.606,117.183z M67.698,113.694
						c-0.176-0.303-0.31-0.635-0.394-0.994c-0.458-1.955,0.755-3.912,2.71-4.369c1.598-0.375,3.195,0.365,3.977,1.715
						c0.175,0.303,0.31,0.637,0.393,0.994c0.458,1.957-0.755,3.912-2.71,4.371C70.076,115.784,68.479,115.044,67.698,113.694z"/>
				</g>
				<g id="XMLID_2092_">
					<path fill="#FFDB76" d="M68.594,77.749l0.251-0.404c0.353,0.137,0.735,0.201,1.128,0.184l0.109,0.463l0.978-0.229L70.949,77.3
						c0.36-0.158,0.673-0.389,0.928-0.668l0.404,0.252l0.53-0.854l-0.405-0.25c0.137-0.353,0.204-0.736,0.185-1.127l0.464-0.109
						l-0.229-0.979l-0.463,0.107c-0.042-0.094-0.089-0.184-0.139-0.273c-0.144-0.244-0.322-0.465-0.527-0.652l0.25-0.404
						l-0.853-0.529l-0.251,0.404c-0.352-0.139-0.735-0.203-1.127-0.186l-0.109-0.463l-0.978,0.229l0.108,0.465
						c-0.359,0.156-0.673,0.387-0.928,0.664l-0.405-0.25l-0.529,0.855l0.404,0.25c-0.138,0.352-0.203,0.734-0.185,1.127
						l-0.463,0.107l0.229,0.979l0.464-0.109c0.041,0.096,0.087,0.186,0.138,0.274c0.143,0.248,0.322,0.467,0.528,0.654l-0.251,0.404
						L68.594,77.749z M68.086,75.8c-0.098-0.17-0.172-0.355-0.22-0.557c-0.256-1.092,0.422-2.184,1.514-2.439
						c0.892-0.209,1.785,0.203,2.221,0.959c0.098,0.168,0.173,0.354,0.22,0.555c0.256,1.092-0.422,2.184-1.514,2.439
						C69.415,76.968,68.523,76.554,68.086,75.8z"/>
				</g>
				<g id="XMLID_2087_">
					<path fill="#FFDB76" d="M66.907,123.294l0.336,0.477l1.18-0.83l-0.335-0.477c0.269-0.293,0.481-0.627,0.632-0.996l0.574,0.102
						l0.248-1.422l-0.574-0.1c-0.018-0.396-0.105-0.789-0.258-1.152l0.476-0.334l-0.22-0.314l-0.609-0.865l-0.477,0.334
						c-0.294-0.27-0.628-0.48-0.996-0.633l0.1-0.572l-1.421-0.248l-0.1,0.574c-0.397,0.016-0.784,0.102-1.15,0.256l-0.336-0.477
						l-1.179,0.83l0.334,0.477c-0.27,0.293-0.481,0.627-0.632,0.994l-0.575-0.1l-0.247,1.422l0.574,0.1
						c0.017,0.396,0.104,0.787,0.257,1.15l-0.477,0.336l0.221,0.314l0.609,0.865l0.477-0.334c0.292,0.268,0.626,0.48,0.996,0.631
						l-0.101,0.574l1.421,0.248l0.101-0.574C66.154,123.534,66.54,123.448,66.907,123.294z M65.223,122.413
						c-0.668-0.117-1.234-0.523-1.562-1.09c-0.109-0.189-0.193-0.396-0.245-0.617c-0.069-0.297-0.078-0.6-0.025-0.9
						c0.214-1.223,1.383-2.045,2.607-1.832c0.667,0.117,1.233,0.523,1.562,1.09c0.109,0.189,0.193,0.396,0.245,0.617
						c0.069,0.295,0.078,0.598,0.025,0.9C67.616,121.804,66.447,122.626,65.223,122.413z"/>
				</g>
			</g>
			<g id="XMLID_2040_">
				<g id="XMLID_2044_">
					<path fill="#FFDB76" d="M112.049,106.124l-0.194-0.83c0.62-0.27,1.188-0.672,1.66-1.193l0.724,0.451l0.949-1.529l-0.725-0.449
						c0.256-0.654,0.363-1.34,0.331-2.017l0.829-0.193l-0.41-1.752l-0.829,0.195c-0.272-0.619-0.673-1.188-1.193-1.66l0.449-0.725
						l-1.528-0.949l-0.449,0.725c-0.172-0.066-0.346-0.123-0.521-0.17c-0.494-0.131-0.998-0.182-1.497-0.158l-0.195-0.83
						l-1.75,0.408l0.194,0.83c-0.619,0.271-1.188,0.674-1.66,1.193l-0.724-0.449l-0.948,1.529l0.724,0.447
						c-0.255,0.656-0.362,1.344-0.33,2.018l-0.831,0.195l0.411,1.752l0.83-0.195c0.272,0.619,0.672,1.188,1.193,1.66l-0.45,0.725
						l1.529,0.947l0.449-0.725c0.172,0.066,0.346,0.125,0.521,0.172c0.493,0.131,0.998,0.184,1.496,0.16l0.194,0.828
						L112.049,106.124z M108.94,104.3c-0.338-0.09-0.669-0.23-0.982-0.424c-1.706-1.059-2.231-3.299-1.173-5.006
						c0.865-1.395,2.519-2,4.025-1.598c0.338,0.09,0.669,0.23,0.981,0.424c1.707,1.057,2.233,3.301,1.173,5.006
						C112.1,104.097,110.447,104.702,108.94,104.3z"/>
				</g>
				<g id="XMLID_2041_">
					<path fill="#FFDB76" d="M115.169,111.646l0.574,0.102l0.248-1.42l-0.574-0.102c-0.017-0.398-0.103-0.785-0.257-1.15
						l0.477-0.336l-0.829-1.18l-0.477,0.334c-0.291-0.266-0.631-0.48-0.996-0.631l0.1-0.574l-0.376-0.066l-1.044-0.182l-0.1,0.574
						c-0.397,0.016-0.784,0.104-1.151,0.256l-0.335-0.477l-1.18,0.83l0.335,0.479c-0.269,0.291-0.481,0.627-0.633,0.994
						l-0.574-0.102l-0.248,1.422l0.574,0.1c0.017,0.398,0.103,0.785,0.257,1.152l-0.476,0.334l0.829,1.182l0.477-0.336
						c0.291,0.268,0.63,0.482,0.996,0.633l-0.101,0.574l0.378,0.066l1.043,0.182l0.1-0.574c0.397-0.018,0.784-0.104,1.151-0.258
						l0.334,0.476l1.18-0.83l-0.335-0.475C114.806,112.349,115.019,112.015,115.169,111.646z M113.354,112.214
						c-0.555,0.391-1.241,0.504-1.874,0.336c-0.211-0.057-0.416-0.145-0.609-0.264c-0.258-0.16-0.479-0.369-0.655-0.619
						c-0.714-1.016-0.468-2.424,0.548-3.139c0.554-0.389,1.241-0.502,1.874-0.334c0.211,0.057,0.417,0.145,0.609,0.264
						c0.258,0.16,0.479,0.369,0.655,0.619C114.616,110.093,114.37,111.501,113.354,112.214z"/>
				</g>
			</g>
			<g id="XMLID_1782_">
				<path fill="#FFDB76" d="M100.799,92.241c0.12,0.086,0.241,0.17,0.365,0.25c0.124,0.08,0.25,0.156,0.376,0.23l0.713-0.645
					c0.154,0.086,0.31,0.168,0.467,0.244l-0.123,0.955c0.268,0.123,0.54,0.234,0.813,0.334l0.583-0.764
					c0.167,0.057,0.336,0.105,0.505,0.154l0.054,0.959c0.286,0.072,0.573,0.131,0.862,0.18l0.434-0.861
					c0.173,0.027,0.347,0.045,0.521,0.059l0.231,0.936c0.294,0.018,0.588,0.025,0.88,0.02l0.268-0.928
					c0.175-0.006,0.35-0.02,0.524-0.039l0.4,0.877c0.29-0.037,0.58-0.086,0.869-0.145l0.093-0.957c0.17-0.041,0.34-0.086,0.51-0.137
					l0.552,0.791c0.279-0.09,0.555-0.193,0.828-0.303l-0.084-0.959c0.162-0.07,0.32-0.145,0.476-0.227l0.688,0.676
					c0.258-0.139,0.509-0.289,0.756-0.449l-0.259-0.924c0.144-0.1,0.288-0.203,0.427-0.312l0.8,0.537
					c0.227-0.186,0.447-0.379,0.662-0.582l-0.427-0.861c0.124-0.123,0.244-0.25,0.362-0.383l0.884,0.379
					c0.188-0.223,0.373-0.453,0.546-0.693l-0.578-0.77c0.049-0.074,0.098-0.146,0.146-0.219c0.048-0.074,0.095-0.148,0.14-0.225
					l0.94,0.211c0.148-0.256,0.282-0.518,0.408-0.779l-0.708-0.652c0.072-0.162,0.139-0.322,0.2-0.488l0.962,0.035
					c0.097-0.277,0.183-0.559,0.258-0.84l-0.816-0.512c0.041-0.17,0.076-0.344,0.108-0.516l0.949-0.145
					c0.044-0.289,0.08-0.582,0.1-0.873l-0.897-0.35c0.008-0.176,0.012-0.35,0.01-0.527l0.909-0.316
					c-0.01-0.295-0.029-0.588-0.062-0.879l-0.947-0.18c-0.023-0.174-0.052-0.348-0.087-0.52l0.836-0.477
					c-0.062-0.287-0.139-0.57-0.224-0.854l-0.963-0.006c-0.055-0.166-0.115-0.33-0.179-0.492l0.735-0.625
					c-0.113-0.27-0.242-0.531-0.377-0.793l-0.946,0.17c-0.085-0.152-0.175-0.303-0.269-0.451l0.607-0.748
					c-0.161-0.244-0.335-0.48-0.516-0.711l-0.899,0.344c-0.111-0.135-0.227-0.268-0.347-0.398l0.459-0.844
					c-0.204-0.209-0.417-0.412-0.639-0.605l-0.82,0.504c-0.134-0.113-0.272-0.221-0.415-0.326l0.296-0.914
					c-0.12-0.084-0.241-0.168-0.365-0.25c-0.124-0.078-0.25-0.154-0.377-0.23l-0.713,0.645c-0.154-0.086-0.309-0.168-0.466-0.244
					l0.124-0.955c-0.268-0.123-0.54-0.232-0.814-0.332l-0.583,0.764c-0.168-0.057-0.336-0.107-0.504-0.156l-0.055-0.957
					c-0.286-0.072-0.572-0.133-0.862-0.182l-0.434,0.861c-0.173-0.025-0.347-0.043-0.521-0.059l-0.23-0.934
					c-0.294-0.018-0.588-0.025-0.881-0.02l-0.268,0.926c-0.175,0.008-0.35,0.022-0.524,0.039l-0.399-0.875
					c-0.29,0.037-0.581,0.084-0.87,0.145l-0.091,0.957c-0.171,0.039-0.34,0.084-0.51,0.133l-0.553-0.787
					c-0.279,0.088-0.554,0.191-0.828,0.303l0.084,0.959c-0.161,0.07-0.319,0.145-0.475,0.225l-0.689-0.676
					c-0.257,0.139-0.508,0.291-0.756,0.449l0.26,0.926c-0.145,0.1-0.288,0.203-0.428,0.311l-0.799-0.535
					c-0.227,0.184-0.447,0.377-0.662,0.58l0.426,0.861c-0.125,0.125-0.244,0.252-0.362,0.383l-0.884-0.377
					c-0.189,0.223-0.373,0.451-0.546,0.691l0.578,0.771c-0.05,0.072-0.098,0.145-0.146,0.219c-0.047,0.074-0.093,0.148-0.14,0.223
					l-0.94-0.211c-0.148,0.256-0.281,0.518-0.407,0.781l0.707,0.65c-0.071,0.162-0.139,0.322-0.2,0.486l-0.962-0.033
					c-0.097,0.279-0.183,0.559-0.258,0.842l0.816,0.51c-0.041,0.172-0.078,0.346-0.108,0.516l-0.95,0.145
					c-0.043,0.291-0.079,0.582-0.1,0.873l0.898,0.352c-0.009,0.174-0.012,0.35-0.01,0.525l-0.909,0.316
					c0.01,0.295,0.029,0.588,0.063,0.879l0.946,0.182c0.023,0.172,0.053,0.346,0.087,0.518l-0.836,0.479
					c0.064,0.287,0.139,0.57,0.225,0.852l0.963,0.006c0.054,0.166,0.114,0.33,0.179,0.494l-0.735,0.623
					c0.114,0.27,0.243,0.533,0.378,0.795l0.946-0.174c0.086,0.154,0.174,0.305,0.269,0.453l-0.608,0.75
					c0.162,0.242,0.336,0.48,0.518,0.711l0.897-0.344c0.113,0.135,0.228,0.268,0.348,0.396l-0.458,0.844
					c0.204,0.211,0.417,0.412,0.638,0.607l0.82-0.504c0.134,0.111,0.274,0.219,0.415,0.324L100.799,92.241z M102.877,90.706
					l3.136-4.848c0.254,0.115,0.524,0.195,0.805,0.236c0.208,0.031,0.416,0.037,0.621,0.025l1.21,5.645
					C106.72,92.073,104.683,91.745,102.877,90.706z M109.565,91.569l-1.21-5.646c0.454-0.174,0.865-0.453,1.193-0.822l4.849,3.137
					C113.174,89.925,111.451,91.06,109.565,91.569z M114.906,87.45l-4.848-3.137c0.208-0.461,0.291-0.949,0.263-1.426l5.645-1.211
					C116.274,83.606,115.945,85.644,114.906,87.45z M115.769,80.761l-5.645,1.209c-0.173-0.451-0.452-0.863-0.824-1.193l3.136-4.848
					C114.124,77.149,115.258,78.874,115.769,80.761z M111.649,75.419l-3.136,4.85c-0.458-0.205-0.946-0.291-1.426-0.262
					l-1.211-5.646C107.804,74.052,109.842,74.38,111.649,75.419z M104.959,74.558l1.211,5.645c-0.411,0.158-0.793,0.402-1.113,0.734
					c-0.029,0.027-0.055,0.059-0.083,0.09l-4.846-3.137C101.35,76.202,103.073,75.067,104.959,74.558z M99.619,78.677l4.845,3.135
					c-0.203,0.453-0.289,0.943-0.261,1.428L98.56,84.45C98.253,82.521,98.58,80.483,99.619,78.677z M98.757,85.366l5.642-1.209
					c0.156,0.408,0.4,0.789,0.734,1.111c0.03,0.029,0.061,0.053,0.092,0.08l-3.136,4.848
					C100.402,88.976,99.267,87.253,98.757,85.366z"/>
			</g>
			<g id="XMLID_1598_">
				<path fill="#FFDB76" d="M65.963,99.618c0.104,0.074,0.211,0.148,0.32,0.219c0.108,0.07,0.219,0.137,0.33,0.203l0.625-0.566
					c0.136,0.074,0.271,0.146,0.41,0.215l-0.108,0.838c0.235,0.105,0.474,0.203,0.714,0.291l0.511-0.668
					c0.146,0.049,0.294,0.094,0.441,0.135l0.047,0.84c0.251,0.064,0.502,0.115,0.756,0.158l0.38-0.754
					c0.152,0.021,0.305,0.039,0.458,0.051l0.203,0.818c0.257,0.016,0.515,0.023,0.772,0.02l0.234-0.814
					c0.154-0.006,0.307-0.018,0.46-0.033l0.35,0.768c0.255-0.031,0.51-0.076,0.763-0.127l0.081-0.84
					c0.149-0.035,0.299-0.074,0.447-0.119l0.485,0.693c0.245-0.078,0.486-0.168,0.726-0.266l-0.074-0.842
					c0.141-0.061,0.28-0.127,0.417-0.195l0.603,0.59c0.226-0.121,0.446-0.254,0.663-0.393l-0.227-0.811
					c0.126-0.088,0.251-0.18,0.375-0.273l0.701,0.469c0.199-0.16,0.392-0.332,0.579-0.508l-0.373-0.756
					c0.109-0.107,0.214-0.221,0.317-0.334l0.776,0.328c0.165-0.193,0.326-0.395,0.479-0.605l-0.507-0.676
					c0.044-0.064,0.086-0.127,0.128-0.191c0.042-0.064,0.083-0.131,0.123-0.195l0.824,0.184c0.13-0.225,0.248-0.455,0.357-0.686
					l-0.62-0.57c0.063-0.141,0.122-0.283,0.175-0.426l0.844,0.029c0.085-0.244,0.161-0.49,0.227-0.738l-0.716-0.447
					c0.036-0.15,0.067-0.301,0.095-0.453l0.834-0.125c0.038-0.256,0.069-0.51,0.087-0.768l-0.788-0.307
					c0.008-0.152,0.011-0.307,0.009-0.461l0.796-0.277c-0.009-0.258-0.025-0.516-0.054-0.771l-0.83-0.156
					c-0.021-0.154-0.046-0.305-0.076-0.457l0.733-0.418c-0.056-0.252-0.122-0.502-0.197-0.748l-0.845-0.004
					c-0.048-0.146-0.1-0.291-0.157-0.434l0.644-0.547c-0.099-0.236-0.212-0.469-0.331-0.697l-0.83,0.15
					c-0.075-0.133-0.152-0.266-0.235-0.395l0.533-0.658c-0.142-0.213-0.294-0.422-0.453-0.623l-0.789,0.303
					c-0.098-0.119-0.199-0.236-0.304-0.35l0.402-0.74c-0.178-0.184-0.365-0.361-0.56-0.531l-0.72,0.441
					c-0.117-0.1-0.239-0.193-0.363-0.285l0.259-0.803c-0.105-0.072-0.211-0.146-0.319-0.219c-0.109-0.068-0.22-0.135-0.331-0.201
					l-0.625,0.564c-0.135-0.074-0.271-0.146-0.409-0.215l0.108-0.836c-0.235-0.107-0.473-0.205-0.713-0.291l-0.512,0.668
					c-0.147-0.049-0.294-0.094-0.442-0.135l-0.047-0.84c-0.251-0.064-0.502-0.117-0.756-0.16l-0.38,0.756
					c-0.152-0.023-0.305-0.039-0.457-0.053l-0.203-0.818c-0.257-0.016-0.515-0.024-0.771-0.018l-0.235,0.812
					c-0.154,0.008-0.307,0.02-0.46,0.035l-0.35-0.77c-0.254,0.033-0.509,0.076-0.763,0.127l-0.08,0.84
					c-0.15,0.035-0.3,0.074-0.448,0.117l-0.484-0.689c-0.245,0.078-0.486,0.168-0.725,0.266l0.073,0.84
					c-0.142,0.061-0.28,0.127-0.417,0.197l-0.604-0.592c-0.226,0.121-0.446,0.254-0.664,0.395l0.228,0.811
					c-0.127,0.086-0.252,0.178-0.375,0.273l-0.701-0.471c-0.199,0.162-0.393,0.33-0.58,0.508l0.374,0.758
					c-0.11,0.107-0.215,0.219-0.317,0.334l-0.775-0.33c-0.166,0.195-0.327,0.396-0.48,0.607l0.507,0.676
					c-0.044,0.062-0.086,0.127-0.129,0.191c-0.041,0.064-0.081,0.129-0.122,0.195l-0.824-0.186c-0.13,0.225-0.247,0.455-0.357,0.686
					l0.621,0.57c-0.063,0.141-0.122,0.283-0.176,0.428l-0.844-0.029c-0.085,0.244-0.161,0.49-0.227,0.736l0.716,0.447
					c-0.036,0.152-0.067,0.303-0.095,0.455l-0.833,0.123c-0.038,0.256-0.069,0.512-0.086,0.768l0.787,0.307
					c-0.008,0.154-0.011,0.307-0.009,0.461l-0.796,0.279c0.009,0.258,0.026,0.516,0.055,0.77l0.83,0.158
					c0.02,0.152,0.045,0.305,0.075,0.457L62.018,93.7c0.055,0.25,0.121,0.5,0.197,0.746l0.844,0.006
					c0.048,0.146,0.1,0.291,0.157,0.432l-0.645,0.547c0.101,0.236,0.214,0.469,0.332,0.697l0.83-0.15
					c0.075,0.135,0.153,0.266,0.236,0.396l-0.533,0.656c0.142,0.213,0.294,0.422,0.454,0.623l0.788-0.301
					c0.097,0.119,0.2,0.234,0.305,0.348l-0.402,0.742c0.179,0.184,0.365,0.359,0.56,0.531l0.719-0.441
					c0.118,0.098,0.24,0.191,0.364,0.285L65.963,99.618z M67.784,98.272l2.75-4.252c0.224,0.1,0.46,0.172,0.706,0.207
					c0.182,0.027,0.365,0.033,0.544,0.023l1.062,4.949C71.154,99.47,69.367,99.183,67.784,98.272z M73.649,99.028l-1.061-4.951
					c0.398-0.152,0.758-0.398,1.046-0.721l4.252,2.75C76.814,97.587,75.304,98.581,73.649,99.028z M78.332,95.417l-4.25-2.75
					c0.182-0.406,0.254-0.834,0.23-1.252l4.949-1.061C79.532,92.046,79.244,93.831,78.332,95.417z M79.09,89.55l-4.95,1.062
					c-0.151-0.396-0.396-0.758-0.722-1.049l2.749-4.25C77.647,86.384,78.642,87.896,79.09,89.55z M75.476,84.866l-2.75,4.252
					c-0.401-0.18-0.83-0.254-1.25-0.23l-1.062-4.949C72.106,83.667,73.892,83.956,75.476,84.866z M69.61,84.11l1.062,4.949
					c-0.36,0.139-0.695,0.354-0.976,0.645c-0.024,0.025-0.048,0.051-0.072,0.078l-4.25-2.75
					C66.445,85.554,67.956,84.558,69.61,84.11z M64.926,87.724l4.25,2.748c-0.178,0.396-0.254,0.826-0.23,1.252l-4.947,1.062
					C63.729,91.093,64.016,89.308,64.926,87.724z M64.171,93.589l4.948-1.061c0.137,0.357,0.351,0.691,0.644,0.975
					c0.027,0.023,0.054,0.047,0.081,0.07l-2.75,4.252C65.614,96.755,64.619,95.243,64.171,93.589z"/>
			</g>
			<g id="XMLID_1588_">
				<path fill="#FFDB76" d="M68.741,63.69c0.121,0.086,0.242,0.17,0.367,0.252c0.125,0.08,0.251,0.156,0.378,0.23l0.716-0.648
					c0.156,0.088,0.312,0.17,0.469,0.248l-0.123,0.959c0.27,0.123,0.542,0.234,0.817,0.334l0.586-0.768
					c0.169,0.057,0.337,0.109,0.507,0.156l0.054,0.963c0.288,0.072,0.576,0.133,0.866,0.182l0.435-0.865
					c0.176,0.025,0.35,0.045,0.525,0.059l0.232,0.939c0.295,0.018,0.59,0.025,0.884,0.02l0.27-0.932
					c0.175-0.008,0.352-0.021,0.526-0.039l0.401,0.879c0.292-0.035,0.584-0.084,0.873-0.145l0.092-0.961
					c0.172-0.041,0.343-0.086,0.513-0.137l0.555,0.793c0.28-0.088,0.558-0.191,0.831-0.303l-0.084-0.965
					c0.163-0.07,0.321-0.145,0.478-0.225l0.692,0.678c0.259-0.141,0.511-0.291,0.759-0.451l-0.26-0.93
					c0.145-0.1,0.289-0.205,0.429-0.312l0.805,0.539c0.226-0.186,0.449-0.381,0.664-0.584l-0.429-0.867
					c0.126-0.123,0.246-0.252,0.365-0.383l0.888,0.379c0.19-0.225,0.375-0.455,0.549-0.697l-0.58-0.774
					c0.05-0.072,0.099-0.146,0.146-0.221c0.048-0.072,0.095-0.148,0.141-0.223l0.944,0.211c0.149-0.258,0.284-0.52,0.41-0.785
					l-0.711-0.654c0.072-0.16,0.139-0.324,0.201-0.488l0.967,0.033c0.097-0.279,0.183-0.561,0.259-0.844l-0.82-0.514
					c0.041-0.172,0.077-0.346,0.108-0.52l0.955-0.143c0.044-0.293,0.08-0.586,0.1-0.879l-0.901-0.354
					c0.009-0.174,0.012-0.35,0.009-0.527l0.914-0.318c-0.01-0.295-0.029-0.592-0.062-0.883L85.5,53.026
					c-0.023-0.174-0.053-0.35-0.087-0.521l0.84-0.481c-0.064-0.289-0.14-0.572-0.226-0.855l-0.968-0.006
					c-0.056-0.168-0.116-0.334-0.18-0.496l0.739-0.627c-0.115-0.271-0.244-0.535-0.38-0.799l-0.951,0.174
					c-0.086-0.154-0.175-0.305-0.271-0.455l0.611-0.752c-0.162-0.244-0.337-0.482-0.519-0.715l-0.903,0.346
					c-0.113-0.137-0.228-0.27-0.349-0.4l0.461-0.848c-0.206-0.211-0.419-0.414-0.642-0.609l-0.824,0.506
					c-0.134-0.113-0.274-0.221-0.417-0.326l0.297-0.92c-0.12-0.084-0.241-0.168-0.366-0.25c-0.126-0.08-0.252-0.156-0.379-0.23
					l-0.717,0.646c-0.154-0.086-0.31-0.17-0.468-0.246l0.123-0.959c-0.27-0.123-0.543-0.234-0.817-0.334l-0.586,0.766
					c-0.169-0.057-0.337-0.107-0.507-0.154l-0.056-0.963c-0.286-0.072-0.574-0.133-0.865-0.182L76.66,44.2
					c-0.175-0.027-0.35-0.045-0.524-0.059l-0.232-0.94c-0.294-0.017-0.59-0.025-0.884-0.02l-0.269,0.932
					c-0.176,0.006-0.352,0.021-0.527,0.039l-0.401-0.881c-0.292,0.037-0.584,0.086-0.874,0.145l-0.092,0.963
					c-0.171,0.041-0.343,0.086-0.512,0.135l-0.555-0.793c-0.28,0.09-0.558,0.193-0.832,0.305l0.084,0.963
					c-0.162,0.072-0.321,0.146-0.478,0.227l-0.691-0.678c-0.258,0.141-0.512,0.291-0.76,0.451l0.26,0.93
					c-0.145,0.098-0.289,0.203-0.429,0.312l-0.804-0.539c-0.227,0.185-0.448,0.381-0.665,0.584l0.429,0.865
					c-0.126,0.125-0.246,0.254-0.364,0.385l-0.889-0.379c-0.19,0.225-0.375,0.453-0.549,0.697l0.581,0.773
					c-0.05,0.072-0.099,0.145-0.147,0.219c-0.047,0.074-0.094,0.149-0.14,0.225l-0.945-0.213c-0.149,0.26-0.284,0.521-0.409,0.785
					l0.711,0.654c-0.072,0.162-0.139,0.326-0.201,0.49l-0.967-0.033c-0.097,0.279-0.184,0.561-0.259,0.844l0.819,0.514
					c-0.041,0.172-0.077,0.346-0.108,0.52l-0.955,0.142c-0.044,0.291-0.079,0.586-0.1,0.879l0.902,0.354
					c-0.009,0.174-0.012,0.35-0.01,0.527l-0.914,0.318c0.01,0.295,0.029,0.59,0.063,0.883l0.95,0.182
					c0.024,0.174,0.053,0.348,0.088,0.521l-0.84,0.48c0.063,0.287,0.139,0.572,0.225,0.855l0.968,0.006
					c0.055,0.168,0.116,0.334,0.18,0.496l-0.738,0.627c0.115,0.271,0.244,0.535,0.379,0.799l0.952-0.174
					c0.086,0.154,0.175,0.305,0.27,0.455l-0.612,0.752c0.163,0.244,0.337,0.482,0.521,0.715l0.902-0.346
					c0.112,0.137,0.229,0.27,0.349,0.398l-0.46,0.85c0.206,0.211,0.418,0.414,0.641,0.609l0.824-0.506
					c0.135,0.111,0.275,0.221,0.418,0.326L68.741,63.69z M70.829,62.147l3.152-4.871c0.255,0.115,0.527,0.197,0.808,0.238
					c0.21,0.031,0.418,0.035,0.625,0.025l1.216,5.672C74.691,63.522,72.644,63.192,70.829,62.147z M77.551,63.015l-1.217-5.674
					c0.458-0.174,0.87-0.455,1.2-0.826l4.873,3.152C81.179,61.362,79.447,62.503,77.551,63.015z M82.918,58.876l-4.871-3.152
					c0.209-0.463,0.292-0.955,0.263-1.434l5.673-1.217C84.292,55.013,83.962,57.06,82.918,58.876z M83.785,52.153l-5.672,1.217
					c-0.173-0.455-0.454-0.869-0.827-1.203l3.151-4.871C82.132,48.524,83.273,50.257,83.785,52.153z M79.645,46.786l-3.152,4.871
					c-0.459-0.205-0.95-0.291-1.433-0.262l-1.216-5.674C75.782,45.411,77.83,45.741,79.645,46.786z M72.922,45.919l1.217,5.674
					c-0.413,0.156-0.797,0.402-1.119,0.736c-0.028,0.029-0.055,0.06-0.083,0.09l-4.87-3.15
					C69.295,47.571,71.027,46.433,72.922,45.919z M67.555,50.06l4.87,3.15c-0.204,0.453-0.291,0.947-0.263,1.434l-5.671,1.217
					C66.182,53.923,66.511,51.876,67.555,50.06z M66.689,56.782l5.67-1.217c0.156,0.41,0.402,0.793,0.738,1.117
					c0.03,0.029,0.062,0.055,0.092,0.082l-3.152,4.871C68.342,60.409,67.202,58.677,66.689,56.782z"/>
			</g>
			<g id="XMLID_1581_">
				<g id="XMLID_1585_">
					<path fill="#FFDB76" d="M107.21,53.757l-0.628-0.576c0.36-0.572,0.604-1.223,0.703-1.92l0.852-0.035l-0.075-1.797l-0.851,0.035
						c-0.157-0.684-0.454-1.312-0.86-1.854l0.576-0.627l-1.323-1.217l-0.577,0.625c-0.573-0.359-1.225-0.604-1.92-0.703l-0.035-0.85
						l-1.796,0.074l0.035,0.851c-0.18,0.041-0.356,0.092-0.527,0.152c-0.482,0.168-0.928,0.408-1.328,0.709l-0.628-0.578
						l-1.217,1.324l0.627,0.576c-0.36,0.574-0.604,1.225-0.703,1.92l-0.852,0.035L96.76,51.7l0.851-0.035
						c0.157,0.684,0.454,1.312,0.86,1.854l-0.578,0.629l1.324,1.215l0.577-0.627c0.573,0.361,1.225,0.605,1.92,0.703l0.036,0.854
						l1.796-0.076l-0.036-0.852c0.18-0.041,0.356-0.092,0.528-0.152c0.481-0.168,0.928-0.408,1.327-0.709l0.627,0.578L107.21,53.757
						z M103.613,53.997c-0.33,0.115-0.683,0.185-1.051,0.199c-2.005,0.086-3.699-1.475-3.784-3.48
						c-0.068-1.639,0.96-3.068,2.432-3.584c0.33-0.115,0.683-0.184,1.05-0.201c2.006-0.082,3.701,1.477,3.784,3.482
						C106.113,52.052,105.085,53.481,103.613,53.997z"/>
				</g>
				<g id="XMLID_1582_">
					<path fill="#FFDB76" d="M112.893,56.573l0.532-0.24l-0.594-1.314l-0.531,0.24c-0.237-0.32-0.526-0.59-0.86-0.807l0.206-0.547
						l-1.349-0.51l-0.207,0.545c-0.391-0.057-0.792-0.045-1.179,0.037l-0.24-0.531l-0.349,0.158l-0.966,0.436l0.24,0.531
						c-0.32,0.236-0.591,0.525-0.808,0.859l-0.545-0.207l-0.51,1.35l0.546,0.207c-0.059,0.393-0.046,0.789,0.036,1.178l-0.531,0.24
						l0.594,1.314l0.531-0.238c0.238,0.318,0.525,0.59,0.86,0.805l-0.206,0.547l1.349,0.51l0.206-0.545
						c0.391,0.057,0.791,0.045,1.179-0.037l0.24,0.531l0.35-0.158l0.965-0.434l-0.239-0.533c0.318-0.236,0.589-0.525,0.807-0.859
						l0.544,0.207l0.511-1.35l-0.545-0.205C112.989,57.358,112.976,56.962,112.893,56.573z M111.712,58.063
						c-0.24,0.633-0.744,1.113-1.362,1.328c-0.207,0.074-0.426,0.115-0.652,0.125c-0.303,0.014-0.604-0.035-0.89-0.145
						c-1.161-0.44-1.749-1.74-1.309-2.902c0.239-0.635,0.744-1.115,1.361-1.33c0.208-0.074,0.426-0.115,0.653-0.125
						c0.303-0.012,0.601,0.037,0.889,0.145C111.564,55.599,112.151,56.899,111.712,58.063z"/>
				</g>
			</g>
		</g>
		<g>
			<g>
				<path fill-rule="evenodd" clip-rule="evenodd" fill="#323136" d="M49.702,103.302c-0.01,2.674-0.047,5.379-0.154,5.603
					c-0.196,0.412-0.596,0.914-1.629,1.098c-1.049,0.02-1.538-0.398-1.81-0.766c-0.315-0.426-1.703-7.535-1.806-8.848
					c0.034-1.131,0.641-2.221,1.662-2.871c1.583-0.734,3.164-1.463,4.746-2.189c1.556-0.713,3.112-1.426,4.67-2.137
					c1.158-0.352,2.379-0.104,3.259,0.607c0.93,0.932,5.422,6.617,5.54,7.133c0.101,0.443,0.099,1.088-0.598,1.873
					c-0.812,0.662-1.454,0.639-1.894,0.52c-0.24-0.066-2.317-1.799-4.354-3.533C54.79,100.962,52.246,102.132,49.702,103.302z"/>
			</g>
			<g>
				<polygon fill-rule="evenodd" clip-rule="evenodd" fill="#ADEBF6" points="47.863,99.495 48.985,98.979 49.593,100.304 
					48.471,100.819 48.987,101.94 47.663,102.548 47.148,101.427 46.025,101.944 45.416,100.62 46.539,100.104 46.023,98.981 
					47.347,98.374 				"/>
			</g>
			<g>
				<g>
					<path fill-rule="evenodd" clip-rule="evenodd" fill="#FF916E" d="M54.455,96.196c0.497-0.227,1.085-0.01,1.314,0.488
						c0.228,0.496,0.011,1.084-0.487,1.312c-0.497,0.229-1.085,0.01-1.313-0.486C53.74,97.015,53.958,96.427,54.455,96.196
						L54.455,96.196z M57.22,94.927c0.498-0.229,1.085-0.012,1.314,0.486c0.229,0.498,0.011,1.086-0.487,1.314
						c-0.496,0.227-1.085,0.01-1.314-0.486C56.506,95.743,56.723,95.155,57.22,94.927L57.22,94.927z M54.624,95.292
						c0.229,0.498,0.817,0.717,1.313,0.488c0.497-0.228,0.715-0.818,0.487-1.314c-0.229-0.496-0.817-0.715-1.314-0.486
						C54.614,94.208,54.395,94.796,54.624,95.292L54.624,95.292z M56.566,97.146c-0.497,0.229-0.716,0.816-0.488,1.312
						c0.229,0.498,0.818,0.715,1.315,0.486c0.498-0.229,0.715-0.816,0.487-1.312C57.651,97.134,57.063,96.917,56.566,97.146z"/>
				</g>
			</g>
			<g>
				<path fill-rule="evenodd" clip-rule="evenodd" fill="#F2F2F2" d="M51.4,100.806l1.131-0.521c0.098-0.045,0.213,0,0.258,0.098
					l0.138,0.297c0.045,0.1,0.002,0.215-0.095,0.26l-1.131,0.52c-0.098,0.045-0.214,0.002-0.259-0.096l-0.137-0.299
					C51.259,100.966,51.302,100.851,51.4,100.806L51.4,100.806z M53.204,99.976l1.131-0.521c0.098-0.045,0.215,0,0.259,0.098
					l0.137,0.299c0.045,0.096,0.001,0.213-0.096,0.258l-1.131,0.52c-0.098,0.045-0.214,0.002-0.258-0.096l-0.138-0.299
					C53.064,100.136,53.107,100.021,53.204,99.976z"/>
			</g>
		</g>
		<g>
			<g>
				<g>
					<path fill="#FFFFFF" d="M56.536,73.104c-0.126-3.711-3.232-6.619-6.943-6.506c-0.008,0-0.017,0-0.024,0
						c-3.723,0.127-6.639,3.244-6.512,6.963c0.126,3.719,3.245,6.631,6.968,6.506c0.007,0,0.016,0,0.025-0.002
						C53.759,79.927,56.662,76.815,56.536,73.104z"/>
				</g>
				<g>
					<polygon fill="#333333" points="49.936,76.759 49.937,76.761 49.937,76.759 					"/>
				</g>
				<g>
					<g>
						<path fill="#ADEBF6" d="M56.011,70.677l-0.352,0.019l-0.183-0.188l-0.043-0.311l-0.177,0.104l-0.085,0.385l-0.27-0.27
							l-0.019-0.26l-0.259-0.211l-0.096-0.088l-0.292,0.01l0.101,0.258l0.358,0.184l0.062,0.062l-0.074,0.041l0.01,0.205
							l-0.168,0.078l-0.147-0.027l-0.095-0.127l0.238,0.006l0.061-0.09l-0.539-0.338l-0.045-0.15l-0.208,0.201l-0.218-0.037
							l-0.316,0.441l-0.059,0.17l-0.21,0.025l-0.312,0.014l-0.19-0.08l-0.067-0.371l0.061-0.178l0.315-0.082l0.35,0.059l0.035-0.193
							l-0.149-0.029l0.041-0.301l0.348-0.066l0.232-0.354l0.25-0.051l0.228,0.027l0.084-0.004l-0.057-0.32l-0.273,0.119
							l-0.105-0.238l-0.161-0.018l-0.036-0.164l0.126-0.146l0.307-0.133l0.075-0.146c-1.221-1.004-2.796-1.588-4.496-1.535
							c-0.005,0-0.01,0-0.015,0c-1.479,0.051-2.833,0.578-3.92,1.428l0.34-0.014l0.155,0.078l0.288,0.051l0.026,0.113h0.455
							l-0.066-0.143l-0.404,0.002l0.091-0.094l-0.037-0.105l-0.365,0.014l0.388-0.311l0.381-0.014l0.188,0.24l0.298,0.008
							l0.173-0.182l0.137,0.064l-0.239,0.248c0,0-0.341,0.018-0.325,0.018c0.018,0,0.037,0.234,0.037,0.234l0.414-0.025l0.042-0.113
							l0.285-0.027l0.027-0.168l-0.168-0.023l0.051-0.154l0.128-0.043l0.449,0.008l-0.24,0.232l0.046,0.172l0.259,0.031
							l-0.028-0.314l0.242-0.137l0.437-0.064l0.512,0.205l0.13,0.053l0.008,0.242l0.204,0.043l-0.094,0.195l-0.23,0.006
							l-0.056,0.002l-0.078,0.223l-0.659-0.133l0.504-0.291l-0.202-0.158l-0.441,0.07l-0.037,0.041h-0.002l-0.007,0.01l-0.123,0.137
							l-0.21,0.025l0.02,0.104l0.075,0.027l-0.002,0.035l-0.17,0.029l-0.009,0.102l-0.165,0.014l-0.036-0.197l-0.292,0.1
							l-0.589,0.373l0.076,0.246l0.171,0.104l0.338,0.035l0.013,0.383l0.154-0.031l0.134-0.305l0.354-0.125l-0.016-0.457
							l0.193-0.158l0.485,0.098l-0.024,0.305l0.129-0.004l0.348-0.188l0.03,0.398l0.12,0.066l0.143,0.082l-0.003,0.236l-0.128,0.047
							l0.006,0.164l0.199,0.084v0.162l-0.086,0.01c0-0.002,0-0.004,0-0.004l-0.105-0.029l-0.274-0.074l-0.02-0.119h-0.001
							l0.108-0.08l-0.004-0.109l-0.118-0.025l-0.026,0.102l-0.205,0.039l-0.021-0.006v0.012l-0.07,0.012l-0.063-0.115l-0.068-0.027
							l-0.148,0.006l-0.064,0.057l0.004,0.121l0.127,0.037l0.125,0.014l-0.028,0.014l-0.109,0.129l-0.052-0.06l-0.11-0.025
							l-0.29,0.291l0.04,0.031l-0.433,0.26l-0.4,0.445l-0.022,0.193l-0.407,0.287l-0.199,0.215l0.037,0.412l-0.291-0.123
							l-0.006-0.242l-0.795,0.027l-0.405,0.223l-0.168,0.336l-0.062,0.264l0.125,0.25l0.326,0.027l0.504-0.361l0.051,0.17
							l-0.147,0.303l0.395,0.053l0.06,0.605l0.542,0.074l0.329-0.408l0.417,0.07l0.152,0.199l0.398-0.037l0.007-0.119l0.222,0.1
							l0.26,0.379l0.426-0.01l0.167,0.27l0.034,0.336l0.307,0.105l0.171,0.057l0.594-0.014l0.184,0.279l0.267,0.076l-0.043,0.238
							l-0.276,0.377l-0.057,0.814l-0.254,0.215l-0.387,0.002l-0.121,0.227v0.002l0.109,0.416l-0.091,0.125l-0.312,0.428
							l-0.126,0.252l-0.395,0.205l-0.263,0.049l-0.006,0.113l0.187,0.047l-0.018,0.121l-0.161,0.166l0.105,0.123l0.2-0.002
							l-0.006,0.154l-0.048,0.152L49.1,79.235l0.304,0.238l-0.036,0.129l-0.401,0.008l-0.412-0.336l-0.33-0.537l0.026-0.529
							l-0.246-0.305l0.077-0.535l-0.141-0.035l-0.04-1.154c0,0-0.402-0.285-0.424-0.285c-0.022,0.002-0.209-0.041-0.209-0.041
							l-0.047-0.219l-0.531-0.621l0.042-0.232l0.005-0.377l0.344-0.258l-0.064-0.42l-0.517-0.021l-0.42-0.445l-0.288-0.068
							l-0.186-0.027l0.017-0.17l-0.237-0.023l0.004,0.094l-0.594-0.125l-0.25-0.355l0.091-0.178l-0.392-0.531l-0.077-0.396
							l-0.151,0.006l0.064,0.385l0.271,0.389l-0.023,0.158l-0.219-0.027l-0.285-0.449l-0.018-0.533l-0.285-0.125l-0.013-0.385
							c-0.32,0.824-0.482,1.723-0.45,2.66c0.125,3.719,3.255,6.642,6.975,6.516c0.005,0,0.01,0,0.015,0
							c2.103-0.074,3.949-1.111,5.133-2.67l-0.223,0.008l-0.015-0.449l-0.27-0.338l-0.018-0.539l-0.204-0.189l-0.024-0.225
							l0.233-0.484l-0.501-0.818l0.038-0.568l-0.428-0.031l-0.162-0.15l-0.286,0.01l-0.141,0.139l-0.505,0.018l-0.016,0.045
							l-0.281,0.01l-0.669-0.713l-0.014-0.572l0.105-0.043l0.033-0.219l-0.152,0.004l-0.069-0.227l0.727-0.564l-0.013-0.381
							l0.358-0.215l0.147,0.01l0.301-0.01l0.231-0.135l0.754-0.084l0.014,0.387l0.601,0.131l0.122,0.08l0.109-0.004l-0.007-0.211
							l0.344-0.045l0.336,0.232l0.539-0.018l0.036-0.035C56.153,71.026,56.086,70.851,56.011,70.677z M52.761,68.866l0.059-0.098
							l0.219-0.053l0.065,0.268l0.125,0.188l0.082,0.086l0.144,0.051l-0.129,0.166l-0.259,0.033l-0.197,0.006l0.015-0.232
							l0.162-0.039l-0.018-0.109l-0.155-0.09l-0.109-0.07L52.761,68.866z M52.411,69.298l0.128-0.219l0.18-0.049l0.131,0.051
							l-0.006,0.146l-0.271,0.205l-0.158,0.006L52.411,69.298z M48.901,70.085l0.193-0.008l0.036-0.105l0.077-0.002l0.088,0.014
							l-0.034,0.08l-0.096,0.012l-0.016,0.092l-0.073,0.049l-0.118,0.016c-0.005-0.029-0.008-0.051-0.008-0.051l-0.046,0.002
							L48.901,70.085z M48.634,70.269l0.004-0.098l0.06-0.08l0.087,0.062l-0.011,0.098L48.634,70.269z"/>
					</g>
				</g>
			</g>
			<g>
				<g>
					
						<rect x="42.774" y="79.494" transform="matrix(0.7066 -0.7076 0.7076 0.7066 -43.73 54.4958)" fill-rule="evenodd" clip-rule="evenodd" fill="#323136" width="2.151" height="0.973"/>
				</g>
				<g>
					<g>
						<path fill-rule="evenodd" clip-rule="evenodd" fill="#323136" d="M50.867,72.962c-1.769-1.77-4.636-1.77-6.405,0
							c-1.768,1.77-1.768,4.637,0,6.406c1.769,1.767,4.636,1.767,6.405,0C52.636,77.599,52.636,74.731,50.867,72.962L50.867,72.962z
							 M50.513,73.317c1.573,1.572,1.573,4.123,0,5.697c-1.573,1.572-4.124,1.572-5.697,0c-1.573-1.574-1.573-4.125,0-5.697
							C46.39,71.743,48.941,71.743,50.513,73.317z"/>
					</g>
				</g>
				<g>
					<g>
						<path fill-rule="evenodd" clip-rule="evenodd" fill="#323136" d="M50.867,72.962c-1.769-1.77-4.636-1.77-6.405,0
							c-1.768,1.77-1.768,4.637,0,6.406c1.769,1.767,4.636,1.767,6.405,0C52.636,77.599,52.636,74.731,50.867,72.962L50.867,72.962z
							 M50.513,73.317c1.573,1.572,1.573,4.123,0,5.697c-1.573,1.572-4.124,1.572-5.697,0c-1.573-1.574-1.573-4.125,0-5.697
							C46.39,71.743,48.941,71.743,50.513,73.317z"/>
					</g>
				</g>
				<g>
					<path fill-rule="evenodd" clip-rule="evenodd" fill="#CCCBC9" d="M39.439,84.392c-0.205-0.207-0.484-0.262-0.622-0.125
						c-0.137,0.139-0.083,0.418,0.124,0.623c0.205,0.205,0.484,0.262,0.622,0.125C39.7,84.876,39.645,84.597,39.439,84.392z"/>
				</g>
				<g>
					<path fill-rule="evenodd" clip-rule="evenodd" fill="#323136" d="M43.706,80.897l-0.775-0.773c-0.094-0.096-0.25-0.096-0.344,0
						l-3.901,3.9c-0.095,0.096-0.095,0.25,0,0.344l0.775,0.775c0.095,0.096,0.249,0.096,0.344,0l3.901-3.9
						C43.801,81.147,43.801,80.993,43.706,80.897z"/>
				</g>
				<g>
					<path fill-rule="evenodd" clip-rule="evenodd" fill="#CCCBC9" d="M42.455,80.257l-0.158,0.158l1.118,1.117l0.159-0.156
						L42.455,80.257L42.455,80.257z M38.934,83.776l-0.158,0.16l1.119,1.117l0.158-0.156L38.934,83.776z"/>
				</g>
				<g>
					<g>
						<path fill="#FFFFFF" d="M51.545,75.089c-0.15-0.549-0.418-1.072-0.805-1.529c-0.071,0.295-0.147,0.588-0.231,0.875
							L51.545,75.089z"/>
					</g>
					<g>
						<path fill="#FFFFFF" d="M49.399,76.579c0.428-1.023,0.8-2.133,1.07-3.311c-0.197-0.191-0.407-0.359-0.628-0.502
							c-0.301,1.02-0.803,2.035-1.602,2.963L49.399,76.579z"/>
					</g>
					<g>
						<path fill="#FFFFFF" d="M50.729,77.554l-1.056-0.773c0.291-0.691,0.559-1.42,0.789-2.184c-0.23,0.764-0.499,1.492-0.79,2.184
							L50.729,77.554z"/>
					</g>
					<g>
						<path fill="#FFFFFF" d="M47.204,74.972l0.004,0.004c0.083-0.062,0.164-0.125,0.244-0.188
							C47.372,74.851,47.287,74.911,47.204,74.972z"/>
					</g>
					<g>
						<path fill="#FFFFFF" d="M44.534,73.606c-0.21,0.258-0.379,0.537-0.516,0.828c0.324-0.146,0.661-0.305,0.994-0.477
							L44.534,73.606z"/>
					</g>
					<g>
						<path fill="#FFFFFF" d="M46.133,73.306l-0.609-0.566c-0.233,0.146-0.455,0.318-0.661,0.516l0.615,0.451
							C45.704,73.577,45.924,73.444,46.133,73.306z"/>
					</g>
					<g>
						<polygon fill="#FFFFFF" points="44.179,78.185 44.179,78.185 45.063,77.341 						"/>
					</g>
					<g>
						<path fill="#FFFFFF" d="M45.205,77.427l-0.942,0.9c0.155,0.24,0.334,0.469,0.545,0.68c0.052,0.053,0.107,0.098,0.16,0.145
							l1.083-1.215L45.205,77.427z"/>
					</g>
					<g>
						<path fill="#FFFFFF" d="M49.439,73.425c0.014-0.033,0.026-0.068,0.04-0.102C49.465,73.356,49.453,73.392,49.439,73.425z"/>
					</g>
					<g>
						<polygon fill="#FFFFFF" points="45.088,79.261 45.088,79.261 45.879,78.374 						"/>
					</g>
					<g>
						<path fill="#FFFFFF" d="M49.536,73.165c0.012-0.033,0.024-0.066,0.035-0.102C49.56,73.099,49.548,73.132,49.536,73.165z"/>
					</g>
					<g>
						<path fill="#FFFFFF" d="M49.624,72.907c0.01-0.035,0.021-0.068,0.032-0.102C49.645,72.839,49.634,72.872,49.624,72.907z"/>
					</g>
					<g>
						<path fill="#FFFFFF" d="M46.299,77.901l1.893,1.145c0.351-0.621,0.694-1.295,1.014-2.016l-1.289-0.943L46.299,77.901z"/>
					</g>
					<g>
						<path fill="#FFFFFF" d="M49.476,77.229c-0.491,1.096-1.039,2.084-1.578,2.947c0.945-0.057,1.874-0.44,2.598-1.158l0.333-0.797
							L49.476,77.229z"/>
					</g>
					<g>
						
							<rect x="50.96" y="77.542" transform="matrix(0.6113 -0.7914 0.7914 0.6113 -41.4196 70.7537)" fill="#FFFFFF" width="0.716" height="0"/>
					</g>
					<g>
						<path fill="#FFFFFF" d="M49.333,73.681c0.015-0.033,0.028-0.064,0.042-0.098C49.361,73.616,49.347,73.647,49.333,73.681z"/>
					</g>
					<g>
						<path fill="#FFFFFF" d="M47.803,79.712c-0.021,0.035-0.043,0.07-0.064,0.104C47.759,79.782,47.782,79.747,47.803,79.712z"/>
					</g>
					<g>
						<polygon fill="#FFFFFF" points="48.114,79.183 48.005,79.118 48.114,79.183 						"/>
					</g>
					<g>
						<path fill="#FFFFFF" d="M47.785,75.991l-0.984-0.723c-0.324,0.229-0.659,0.443-0.998,0.654l1.267,0.869L47.785,75.991z"/>
					</g>
					<g>
						<path fill="#FFFFFF" d="M45.657,76.015c-0.292,0.18-0.584,0.357-0.877,0.529c-0.123,0.072-0.246,0.145-0.37,0.217l1.747,1.057
							l0.807-0.906L45.657,76.015z"/>
					</g>
					<g>
						<path fill="#FFFFFF" d="M48.217,75.501c0.022-0.025,0.044-0.051,0.065-0.076C48.261,75.45,48.239,75.476,48.217,75.501z"/>
					</g>
					<g>
						<path fill="#FFFFFF" d="M48.44,75.22c0.009-0.012,0.017-0.023,0.026-0.033C48.457,75.196,48.449,75.208,48.44,75.22z"/>
					</g>
					<g>
						<path fill="#FFFFFF" d="M48.442,73.892c-0.153,0.164-0.315,0.322-0.482,0.473C48.127,74.214,48.289,74.056,48.442,73.892z"/>
					</g>
					<g>
						<path fill="#FFFFFF" d="M48.803,74.69c0.012-0.02,0.023-0.039,0.035-0.059C48.826,74.651,48.815,74.671,48.803,74.69z"/>
					</g>
					<g>
						<path fill="#FFFFFF" d="M48.952,74.442c0.015-0.025,0.028-0.053,0.043-0.078C48.98,74.39,48.967,74.417,48.952,74.442z"/>
					</g>
					<g>
						<path fill="#FFFFFF" d="M48.642,74.938c0-0.002,0-0.002,0-0.002S48.643,74.937,48.642,74.938z"/>
					</g>
					<g>
						<path fill="#FFFFFF" d="M48.661,73.638c0.14-0.174,0.267-0.354,0.373-0.541C48.928,73.284,48.801,73.464,48.661,73.638z"/>
					</g>
					<g>
						<path fill="#FFFFFF" d="M49.09,74.188c0.015-0.027,0.029-0.057,0.044-0.086C49.119,74.132,49.105,74.161,49.09,74.188z"/>
					</g>
					<g>
						<path fill="#FFFFFF" d="M49.216,73.937c0.015-0.031,0.03-0.062,0.044-0.094C49.246,73.874,49.231,73.905,49.216,73.937z"/>
					</g>
					<g>
						<path fill="#BBBCBE" d="M47.666,72.126c-0.084,0-0.167,0.004-0.25,0.01c-0.157,0.227-0.362,0.447-0.605,0.656
							c-0.111,0.098-0.229,0.191-0.353,0.283c-0.062,0.047-0.125,0.092-0.19,0.137l-0.6-0.559c-0.049,0.029-0.098,0.057-0.145,0.086
							l0.609,0.566c-0.208,0.139-0.429,0.271-0.655,0.4l-0.615-0.451c-0.018,0.018-0.038,0.033-0.055,0.051
							c-0.097,0.096-0.188,0.199-0.273,0.301l0.478,0.352c-0.333,0.172-0.67,0.33-0.994,0.477c-0.042,0.084-0.081,0.172-0.116,0.26
							C45.482,74.009,47.049,73.138,47.666,72.126z"/>
					</g>
					<g>
						<path fill="#BBBCBE" d="M50.83,78.222l0.036-0.086l0.021-0.033l0.212-0.277l0,0h0l-0.37-0.271l-1.058-0.773
							c0.292-0.691,0.56-1.42,0.79-2.184c0-0.002,0-0.004,0.001-0.006l1.136,0.719c-0.016-0.074-0.034-0.148-0.054-0.221
							l-1.036-0.654c0.083-0.287,0.16-0.58,0.231-0.875c-0.074-0.088-0.147-0.172-0.229-0.254c-0.014-0.014-0.029-0.025-0.042-0.037
							c-0.27,1.178-0.642,2.287-1.07,3.311l-1.161-0.85c-0.085,0.098-0.173,0.197-0.266,0.293l-0.125-0.102
							c0.09-0.094,0.176-0.191,0.259-0.287l-0.898-0.658l0,0l-0.004-0.004c0.083-0.061,0.168-0.121,0.249-0.184
							c0.168-0.133,0.34-0.273,0.507-0.424c0.167-0.15,0.329-0.309,0.482-0.473c0.076-0.082,0.149-0.168,0.219-0.254
							c0.14-0.174,0.267-0.354,0.373-0.541c0.053-0.094,0.101-0.188,0.143-0.285c0.048-0.107,0.088-0.221,0.125-0.334
							c-0.063-0.027-0.126-0.057-0.19-0.08c-0.036,0.117-0.076,0.23-0.125,0.342c-0.681,1.557-3.085,2.928-5.281,4.205
							c0.014,0.066,0.033,0.133,0.049,0.197c0.167-0.096,0.334-0.193,0.501-0.289l0.808,0.488l-0.884,0.844
							c0.028,0.047,0.054,0.096,0.084,0.143l0.942-0.9l0.846,0.51l-1.083,1.215c0.041,0.035,0.079,0.074,0.12,0.109l0.791-0.887
							l0.312-0.352l1.814,1.096l0.108,0.064l0,0v0.002c-0.104,0.182-0.207,0.355-0.311,0.527c-0.021,0.035-0.043,0.07-0.064,0.104
							c-0.076,0.125-0.152,0.246-0.227,0.365c0.129,0.006,0.258,0.004,0.387-0.004c0.539-0.863,1.086-1.852,1.578-2.947
							L50.83,78.222z M46.802,75.269l0.984,0.723l-0.714,0.801l-1.267-0.869C46.142,75.712,46.478,75.497,46.802,75.269z
							 M46.157,77.817l-1.747-1.057c0.124-0.072,0.247-0.144,0.37-0.217c0.292-0.172,0.585-0.35,0.877-0.529l1.307,0.896
							L46.157,77.817z M48.192,79.046l-1.893-1.145l1.618-1.814l1.289,0.943C48.886,77.751,48.543,78.425,48.192,79.046z"/>
					</g>
					<g>
						<path fill-rule="evenodd" clip-rule="evenodd" fill="#ADEBF6" d="M48.987,72.739c0.049-0.111,0.089-0.225,0.125-0.342
							c-0.464-0.18-0.955-0.271-1.445-0.271c-0.618,1.012-2.185,1.883-3.764,2.568c-0.279,0.719-0.345,1.502-0.197,2.25
							C45.902,75.667,48.305,74.296,48.987,72.739z"/>
					</g>
					<g>
						<path fill="#BBBCBE" d="M50.886,78.103l-0.021,0.033l-0.036,0.086l-0.333,0.797c0.004-0.004,0.009-0.006,0.014-0.012
							c0.504-0.504,0.845-1.107,1.026-1.748l-0.438,0.566L50.886,78.103z"/>
					</g>
					<g>
						<path fill="#BBBCBE" d="M49.624,72.907c-0.017,0.053-0.035,0.105-0.052,0.156c-0.011,0.035-0.023,0.068-0.035,0.102
							c-0.019,0.055-0.038,0.107-0.058,0.158c-0.013,0.033-0.026,0.068-0.04,0.102c-0.021,0.053-0.042,0.105-0.064,0.158
							c-0.015,0.033-0.028,0.064-0.042,0.098c-0.023,0.055-0.048,0.109-0.073,0.162c-0.014,0.031-0.029,0.062-0.044,0.094
							c-0.026,0.055-0.054,0.111-0.082,0.166c-0.015,0.029-0.029,0.059-0.044,0.086c-0.031,0.059-0.064,0.117-0.095,0.176
							c-0.015,0.025-0.029,0.053-0.043,0.078c-0.037,0.062-0.075,0.127-0.114,0.189c-0.012,0.02-0.023,0.039-0.035,0.059
							c-0.051,0.082-0.104,0.164-0.16,0.246c0,0,0,0,0,0.002c-0.057,0.082-0.116,0.164-0.176,0.248
							c-0.009,0.01-0.017,0.021-0.026,0.033c-0.051,0.068-0.104,0.137-0.159,0.205c-0.021,0.025-0.043,0.051-0.065,0.076
							c-0.036,0.045-0.072,0.09-0.109,0.133h-0.001c-0.083,0.096-0.169,0.193-0.259,0.287l0.125,0.102
							c0.092-0.096,0.18-0.195,0.266-0.293c0.799-0.928,1.301-1.943,1.602-2.963c-0.048-0.031-0.099-0.059-0.148-0.088
							c-0.012,0.043-0.024,0.084-0.037,0.127C49.645,72.839,49.634,72.872,49.624,72.907z"/>
					</g>
					<g>
						<path fill-rule="evenodd" clip-rule="evenodd" fill="#FF916E" d="M50.463,74.591c-0.001,0.002-0.001,0.004-0.001,0.006
							c-0.229,0.764-0.497,1.492-0.789,2.184l1.056,0.773l0.37,0.271h0l0.438-0.566c0.18-0.635,0.2-1.305,0.062-1.949L50.463,74.591
							z"/>
					</g>
					<g>
						<path fill-rule="evenodd" clip-rule="evenodd" fill="#FF916E" d="M44.255,76.853c-0.167,0.096-0.334,0.193-0.501,0.289
							c0.091,0.363,0.232,0.713,0.425,1.043l0.884-0.844L44.255,76.853z"/>
					</g>
					<g>
						<path fill="#53A076" d="M47.803,79.712c0.104-0.172,0.208-0.346,0.311-0.527v-0.002l-0.108-0.064l-1.814-1.096l-0.312,0.352
							l-0.791,0.887c0.704,0.584,1.56,0.889,2.424,0.92c0.075-0.119,0.151-0.24,0.227-0.365
							C47.759,79.782,47.782,79.747,47.803,79.712z"/>
					</g>
					<g>
						<path fill="#53A076" d="M46.459,73.075c0.124-0.092,0.242-0.186,0.353-0.283c0.243-0.209,0.448-0.43,0.605-0.656
							c-0.607,0.037-1.205,0.209-1.748,0.518l0.6,0.559C46.334,73.167,46.397,73.122,46.459,73.075z"/>
					</g>
					<g>
						<path fill="#53A076" d="M49.034,73.097c-0.106,0.188-0.233,0.367-0.373,0.541c-0.07,0.086-0.143,0.172-0.219,0.254
							c-0.153,0.164-0.315,0.322-0.482,0.473c-0.167,0.15-0.338,0.291-0.507,0.424c-0.081,0.062-0.162,0.125-0.244,0.188l0,0
							l0.898,0.658h0.001c0.037-0.043,0.073-0.088,0.109-0.133c0.022-0.025,0.044-0.051,0.065-0.076
							c0.055-0.068,0.107-0.137,0.159-0.205c0.009-0.012,0.017-0.023,0.026-0.033c0.061-0.084,0.119-0.166,0.176-0.248
							c0-0.002,0-0.002,0-0.002c0.056-0.082,0.108-0.164,0.16-0.246c0.012-0.02,0.023-0.039,0.035-0.059
							c0.039-0.062,0.078-0.127,0.114-0.189c0.015-0.025,0.028-0.053,0.043-0.078c0.031-0.059,0.064-0.117,0.095-0.176
							c0.015-0.027,0.029-0.057,0.044-0.086c0.028-0.055,0.056-0.111,0.082-0.166c0.015-0.031,0.03-0.062,0.044-0.094
							c0.025-0.053,0.05-0.107,0.073-0.162c0.015-0.033,0.028-0.064,0.042-0.098c0.021-0.053,0.043-0.105,0.064-0.158
							c0.014-0.033,0.026-0.068,0.04-0.102c0.019-0.051,0.039-0.103,0.058-0.158c0.012-0.033,0.024-0.066,0.035-0.102
							c0.018-0.051,0.035-0.104,0.052-0.156c0.01-0.035,0.021-0.068,0.032-0.102c0.013-0.043,0.025-0.084,0.037-0.127
							c-0.127-0.074-0.258-0.143-0.391-0.201c-0.037,0.113-0.077,0.227-0.125,0.334C49.135,72.909,49.087,73.003,49.034,73.097z"/>
					</g>
				</g>
			</g>
			<g>
				<g>
					<path fill-rule="evenodd" clip-rule="evenodd" fill="#FF916E" d="M49.507,73.817c-0.015-0.061-0.048-0.125-0.072-0.18
						c-0.288-0.691-0.916-0.94-1.425-0.94c-0.68,0-1.428,0.455-1.529,1.397v0.189c0,0.008,0.003,0.08,0.008,0.117
						c0.055,0.447,0.41,0.922,0.672,1.371c0.285,0.479,0.579,0.951,0.871,1.422c0.179-0.307,0.358-0.617,0.535-0.918
						c0.048-0.09,0.104-0.176,0.152-0.26c0.032-0.057,0.093-0.113,0.12-0.164c0.284-0.52,0.741-1.043,0.741-1.561v-0.211
						C49.58,74.024,49.511,73.829,49.507,73.817L49.507,73.817z M48.023,74.78L48.023,74.78c-0.2,0-0.418-0.1-0.526-0.375
						c-0.016-0.045-0.015-0.133-0.015-0.141v-0.123c0-0.352,0.299-0.514,0.558-0.514c0.319,0,0.567,0.256,0.567,0.576
						C48.607,74.524,48.343,74.78,48.023,74.78z"/>
				</g>
			</g>
		</g>
		<g>
			<g>
				<path fill-rule="evenodd" clip-rule="evenodd" fill="#CCCBC9" d="M135.236,64.765c-1.614,0-3.012,0.93-3.687,2.283
					c-0.411-0.197-0.871-0.309-1.359-0.309c-1.292,0-2.403,0.785-2.88,1.904c-0.441-0.398-1.027-0.643-1.67-0.643
					c-1.379,0-2.497,1.119-2.497,2.496c0,1.379,1.118,2.498,2.497,2.498h9.595c2.272,0,4.115-1.844,4.115-4.115
					C139.35,66.606,137.508,64.765,135.236,64.765z"/>
			</g>
			<g>
				<polygon fill-rule="evenodd" clip-rule="evenodd" fill="#FFFFFF" points="130.204,66.685 130.204,64.36 128.872,64.36 
					128.872,66.685 128.058,66.685 129.538,68.351 131.017,66.685 				"/>
			</g>
		</g>
		<g id="XMLID_1512_">
			<g id="XMLID_1580_">
				<path fill="#FFFFFF" d="M142.696,95.382c0,0.104-0.085,0.188-0.189,0.188l-17.65-0.029c-0.104,0-0.188-0.084-0.188-0.188
					l-0.024-9.691c0-0.104,0.124-0.186,0.229-0.186l17.651,0.027c0.104,0,0.189,0.084,0.189,0.188L142.696,95.382z"/>
			</g>
			<g id="XMLID_1579_">
				
					<rect x="130.318" y="82.34" transform="matrix(0.0016 -1 1 0.0016 42.0934 224.906)" fill="#FF916E" width="6.729" height="18.065"/>
			</g>
			<g>
				<path fill="#333333" d="M141.139,85.157h-3.024c-0.074,0.023-0.126,0.094-0.127,0.176l-0.004,2.09
					c0,0.104,0.085,0.189,0.189,0.189l2.923,0.006c0.105,0,0.189-0.086,0.189-0.189l0.003-2.092
					C141.289,85.247,141.224,85.175,141.139,85.157z"/>
			</g>
			<g>
				<path fill="#CCCBC9" d="M140.659,85.593h-2.058c-0.05,0.016-0.086,0.059-0.086,0.113l-0.002,1.35
					c0,0.068,0.057,0.121,0.128,0.121l1.99,0.004c0.071,0,0.129-0.055,0.129-0.121l0.002-1.35
					C140.761,85.651,140.717,85.604,140.659,85.593z"/>
			</g>
			<g id="XMLID_1551_">
				<path fill="#333333" d="M142.988,86.36c-0.432,0-0.782,0.348-0.783,0.779c0,0.432,0.349,0.783,0.78,0.783
					c0.432,0,0.782-0.35,0.784-0.779C143.769,86.712,143.42,86.36,142.988,86.36z M142.986,87.444c-0.167,0-0.302-0.135-0.301-0.303
					c0-0.168,0.136-0.303,0.302-0.303c0.167,0,0.303,0.137,0.303,0.303C143.289,87.31,143.154,87.444,142.986,87.444z"/>
			</g>
			<g id="XMLID_1534_">
				<path fill="#333333" d="M124.406,86.329c-0.431,0-0.782,0.35-0.782,0.781c-0.001,0.432,0.348,0.781,0.78,0.783
					c0.431,0,0.781-0.35,0.782-0.779C125.186,86.681,124.837,86.331,124.406,86.329z M124.404,87.413
					c-0.168,0-0.302-0.135-0.302-0.303c0-0.166,0.136-0.301,0.303-0.301c0.167,0,0.302,0.135,0.301,0.303
					C124.706,87.278,124.57,87.413,124.404,87.413z"/>
			</g>
			<g id="XMLID_1527_">
				<g id="XMLID_1529_">
					<path fill="#333333" d="M138.738,90.155c-0.089,0.246-0.36,0.371-0.605,0.281c-0.246-0.088-0.372-0.359-0.282-0.604
						c0.089-0.246,0.36-0.373,0.605-0.283C138.701,89.64,138.827,89.911,138.738,90.155z"/>
				</g>
				<g id="XMLID_1528_">
					<path fill="#333333" d="M138.385,89.952c0.027,0.057,0.001,0.125-0.055,0.15c-0.057,0.025-0.125,0.002-0.151-0.055
						l-0.327-0.703c-0.025-0.057-0.001-0.125,0.056-0.15c0.056-0.027,0.124-0.002,0.15,0.055L138.385,89.952z"/>
				</g>
			</g>
			<g id="XMLID_1517_">
				<g id="XMLID_1526_">
					<path fill="#333333" d="M135.394,91.155c-0.003,2.242-1.824,4.057-4.066,4.053c-2.241-0.004-4.056-1.824-4.052-4.066
						c0.004-2.242,1.824-4.057,4.066-4.053C133.584,87.093,135.398,88.913,135.394,91.155z"/>
				</g>
				<g id="XMLID_1521_">
					<path fill="#FFFFFF" d="M134.616,91.153c-0.003,1.812-1.475,3.281-3.288,3.277c-1.812-0.004-3.279-1.475-3.276-3.287
						c0.002-1.814,1.475-3.279,3.286-3.277C133.153,87.87,134.619,89.341,134.616,91.153z"/>
				</g>
				<g id="XMLID_1518_">
					<g id="XMLID_1519_">
						<path fill="#333333" d="M133.048,91.151c-0.001,0.945-0.769,1.711-1.716,1.711c-0.946-0.002-1.712-0.77-1.711-1.717
							c0.002-0.947,0.77-1.713,1.716-1.711C132.284,89.437,133.049,90.204,133.048,91.151z"/>
					</g>
				</g>
			</g>
			<g id="XMLID_1513_">
				<g id="XMLID_1516_">
					<rect x="125.95" y="84.747" fill="#333333" width="2.629" height="0.73"/>
				</g>
				<g id="XMLID_1515_">
					<rect x="126.897" y="83.776" fill="#333333" width="0.735" height="0.971"/>
				</g>
				<g id="XMLID_1514_">
					<path fill="#FFFFFF" d="M128.399,85.173c0,0.168-0.137,0.305-0.305,0.305c-0.169,0-0.306-0.137-0.306-0.305
						c0-0.17,0.138-0.307,0.306-0.307C128.261,84.866,128.399,85.003,128.399,85.173z"/>
				</g>
			</g>
		</g>
		<g>
			<g>
				<g>
					<polygon fill-rule="evenodd" clip-rule="evenodd" fill="#FFFFFF" points="134.102,99.179 119.579,106.368 126.731,120.817 
						126.732,120.817 130.91,122.487 142.741,116.63 					"/>
				</g>
				<g>
					<polygon fill-rule="evenodd" clip-rule="evenodd" fill="#ADEBF6" points="132.842,104.298 132.244,104.593 133.719,107.573 
						134.318,107.278 					"/>
				</g>
				<g>
					<polygon fill-rule="evenodd" clip-rule="evenodd" fill="#FF916E" points="131.238,103.577 130.64,103.872 132.718,108.069 
						133.316,107.772 					"/>
				</g>
				<g>
					
						<rect x="130.79" y="104.61" transform="matrix(0.897 -0.4419 0.4419 0.897 -33.6183 68.9242)" fill-rule="evenodd" clip-rule="evenodd" fill="#FFDB76" width="0.668" height="4.016"/>
				</g>
				<g>
					
						<rect x="130.005" y="106.033" transform="matrix(0.8959 -0.4443 0.4443 0.8959 -34.2157 69.1151)" fill-rule="evenodd" clip-rule="evenodd" fill="#ADEBF6" width="0.668" height="3.038"/>
				</g>
				<g>
					
						<rect x="128.781" y="105.579" transform="matrix(0.8968 -0.4425 0.4425 0.8968 -34.2824 68.2348)" fill-rule="evenodd" clip-rule="evenodd" fill="#FF916E" width="0.667" height="4.039"/>
				</g>
				<g>
					<polygon fill-rule="evenodd" clip-rule="evenodd" fill="#FFDB76" points="127.177,105.454 126.58,105.749 128.71,110.052 
						129.309,109.757 					"/>
				</g>
				<g>
					
						<rect x="126.429" y="105.079" transform="matrix(0.8956 -0.4449 0.4449 0.8956 -34.7634 67.6682)" fill-rule="evenodd" clip-rule="evenodd" fill="#ADEBF6" width="0.668" height="5.613"/>
				</g>
				<g>
					
						<rect x="125.67" y="106.615" transform="matrix(0.8968 -0.4423 0.4423 0.8968 -35.1619 66.9687)" fill-rule="evenodd" clip-rule="evenodd" fill="#FF916E" width="0.667" height="4.517"/>
				</g>
				<g>
					
						<rect x="124.88" y="108.015" transform="matrix(0.8958 -0.4445 0.4445 0.8958 -35.7527 67.0927)" fill-rule="evenodd" clip-rule="evenodd" fill="#FFDB76" width="0.668" height="3.563"/>
				</g>
				<g>
					<g>
						<path fill-rule="evenodd" clip-rule="evenodd" fill="#FF916E" d="M128.73,113.058l-0.769,0.775
							c-0.148-0.146-0.256-0.338-0.301-0.557v-0.002l1.07-0.219V113.058z"/>
					</g>
					<g>
						<path fill-rule="evenodd" clip-rule="evenodd" fill="#FFDB76" d="M128.73,113.056l-1.07,0.219
							c-0.12-0.59,0.261-1.166,0.852-1.287L128.73,113.056z"/>
					</g>
					<g>
						<path fill-rule="evenodd" clip-rule="evenodd" fill="#ADEBF6" d="M128.73,113.056l-0.218-1.068
							c0.591-0.121,1.168,0.26,1.289,0.852c0.121,0.59-0.26,1.168-0.852,1.289c-0.371,0.076-0.737-0.049-0.988-0.295l0.769-0.775
							V113.056z"/>
					</g>
				</g>
				<g>
					<g>
						<path fill-rule="evenodd" clip-rule="evenodd" fill="#ADEBF6" d="M131.319,110.548c0.591-0.121,1.168,0.26,1.289,0.852
							c0.12,0.592-0.261,1.168-0.852,1.289c-0.372,0.076-0.737-0.047-0.988-0.295c-0.148-0.146-0.256-0.336-0.3-0.557
							c-0.001,0-0.001,0-0.001-0.002C130.346,111.245,130.727,110.669,131.319,110.548z"/>
					</g>
					<g>
						<path fill-rule="evenodd" clip-rule="evenodd" fill="#FFDB76" d="M131.319,110.548l0.219,1.07l0.006,0.006h-0.001
							l-1.091-0.125C130.502,111.04,130.841,110.646,131.319,110.548z"/>
					</g>
					<g>
						<path fill-rule="evenodd" clip-rule="evenodd" fill="#FF916E" d="M130.451,111.499l1.091,0.125h0.004l0.901,0.598
							c-0.154,0.232-0.397,0.406-0.692,0.467c-0.337,0.068-0.668-0.025-0.914-0.229c-0.186-0.152-0.323-0.369-0.374-0.623
							C130.444,111.722,130.439,111.608,130.451,111.499z"/>
					</g>
				</g>
				<g>
					<g>
						<path fill-rule="evenodd" clip-rule="evenodd" fill="#ADEBF6" d="M134.164,109.188c0.591-0.121,1.168,0.26,1.289,0.852
							c0.121,0.592-0.26,1.168-0.851,1.289c-0.372,0.076-0.738-0.047-0.988-0.295c-0.148-0.146-0.256-0.336-0.3-0.557
							c-0.001,0-0.001-0.002-0.001-0.002C133.193,109.886,133.574,109.31,134.164,109.188z"/>
					</g>
					<g>
						<path fill-rule="evenodd" clip-rule="evenodd" fill="#FF916E" d="M133.958,111.265l0.437-1.006l1.074,0.123
							c-0.053,0.459-0.393,0.85-0.867,0.947C134.377,111.374,134.154,111.349,133.958,111.265z"/>
					</g>
					<g>
						<path fill-rule="evenodd" clip-rule="evenodd" fill="#FFDB76" d="M134.395,110.259l-0.437,1.006
							c-0.32-0.135-0.569-0.42-0.644-0.787c-0.058-0.279-0.002-0.557,0.133-0.781l0.936,0.562H134.395z"/>
					</g>
				</g>
				<g>
					<g>
						<polygon fill-rule="evenodd" clip-rule="evenodd" fill="#CCCBC9" points="137.789,111.448 134.524,113.063 134.63,113.278 
							137.896,111.661 						"/>
					</g>
					<g>
						
							<rect x="134.636" y="112.745" transform="matrix(0.8964 -0.4432 0.4432 0.8964 -35.8893 72.1754)" fill-rule="evenodd" clip-rule="evenodd" fill="#CCCBC9" width="3.645" height="0.239"/>
					</g>
					<g>
						<polygon fill-rule="evenodd" clip-rule="evenodd" fill="#CCCBC9" points="138.286,112.452 135.02,114.069 135.127,114.282 
							138.392,112.665 						"/>
					</g>
					<g>
						
							<rect x="135.133" y="113.75" transform="matrix(0.8961 -0.4438 0.4438 0.8961 -36.3084 72.6059)" fill-rule="evenodd" clip-rule="evenodd" fill="#CCCBC9" width="3.644" height="0.238"/>
					</g>
					<g>
						<polygon fill-rule="evenodd" clip-rule="evenodd" fill="#CCCBC9" points="138.784,113.454 135.518,115.071 135.624,115.286 
							138.889,113.669 						"/>
					</g>
					<g>
						
							<rect x="135.629" y="114.754" transform="matrix(0.8962 -0.4437 0.4437 0.8962 -36.6972 72.9095)" fill-rule="evenodd" clip-rule="evenodd" fill="#CCCBC9" width="3.645" height="0.238"/>
					</g>
					<g>
						
							<rect x="136.791" y="115.041" transform="matrix(0.8959 -0.4442 0.4442 0.8959 -36.78 73.3488)" fill-rule="evenodd" clip-rule="evenodd" fill="#CCCBC9" width="2.682" height="0.239"/>
					</g>
					<g>
						<polygon fill-rule="evenodd" clip-rule="evenodd" fill="#CCCBC9" points="134.078,113.284 130.811,114.901 130.918,115.114 
							134.184,113.499 						"/>
					</g>
					<g>
						<polygon fill-rule="evenodd" clip-rule="evenodd" fill="#CCCBC9" points="134.326,113.788 131.06,115.403 131.166,115.618 
							134.432,114.001 						"/>
					</g>
					<g>
						
							<rect x="131.172" y="115.086" transform="matrix(0.8962 -0.4437 0.4437 0.8962 -37.3099 70.9767)" fill-rule="evenodd" clip-rule="evenodd" fill="#CCCBC9" width="3.645" height="0.238"/>
					</g>
					<g>
						<polygon fill-rule="evenodd" clip-rule="evenodd" fill="#CCCBC9" points="134.823,114.792 131.557,116.409 131.664,116.622 
							134.929,115.005 						"/>
					</g>
					<g>
						<polygon fill-rule="evenodd" clip-rule="evenodd" fill="#CCCBC9" points="135.072,115.292 131.806,116.909 131.911,117.124 
							135.178,115.507 						"/>
					</g>
					<g>
						<polygon fill-rule="evenodd" clip-rule="evenodd" fill="#CCCBC9" points="135.32,115.794 132.054,117.411 132.16,117.624 
							135.426,116.009 						"/>
					</g>
					<g>
						<polygon fill-rule="evenodd" clip-rule="evenodd" fill="#CCCBC9" points="135.569,116.296 133.46,117.341 133.566,117.554 
							135.674,116.511 						"/>
					</g>
					<g>
						<polygon fill-rule="evenodd" clip-rule="evenodd" fill="#CCCBC9" points="130.366,115.122 127.1,116.739 127.205,116.954 
							130.471,115.337 						"/>
					</g>
					<g>
						<polygon fill-rule="evenodd" clip-rule="evenodd" fill="#CCCBC9" points="130.614,115.626 127.349,117.241 127.454,117.454 
							130.72,115.839 						"/>
					</g>
					<g>
						
							<rect x="127.461" y="116.923" transform="matrix(0.8963 -0.4434 0.4434 0.8963 -38.4913 69.4522)" fill-rule="evenodd" clip-rule="evenodd" fill="#CCCBC9" width="3.643" height="0.239"/>
					</g>
					<g>
						<polygon fill-rule="evenodd" clip-rule="evenodd" fill="#CCCBC9" points="131.111,116.63 127.845,118.247 127.951,118.46 
							131.217,116.843 						"/>
					</g>
					<g>
						
							<rect x="127.957" y="117.926" transform="matrix(0.8962 -0.4437 0.4437 0.8962 -38.9043 69.8451)" fill-rule="evenodd" clip-rule="evenodd" fill="#CCCBC9" width="3.644" height="0.24"/>
					</g>
					<g>
						<polygon fill-rule="evenodd" clip-rule="evenodd" fill="#CCCBC9" points="131.608,117.632 128.342,119.249 128.448,119.464 
							131.714,117.847 						"/>
					</g>
					<g>
						
							<rect x="129.358" y="118.719" transform="matrix(0.896 -0.4441 0.4441 0.896 -39.1784 70.4025)" fill-rule="evenodd" clip-rule="evenodd" fill="#CCCBC9" width="2.691" height="0.237"/>
					</g>
				</g>
				<g>
					<path fill-rule="evenodd" clip-rule="evenodd" fill="#BEC0C2" d="M129.259,119.448c0.567,1.654,0.987,2.418,1.651,3.039
						l-4.178-1.67C127.528,120.778,128.159,120.437,129.259,119.448z"/>
				</g>
			</g>
		</g>
		<g>
			<g id="XMLID_1507_">
				<g id="XMLID_1508_">
					<g id="XMLID_1511_">
						<path fill-rule="evenodd" clip-rule="evenodd" fill="#323136" d="M79.06,50.544h22.522c4.362,0,7.931,3.57,7.931,7.932v59.795
							c0,4.361-3.569,7.93-7.931,7.93H79.06c-4.362,0-7.931-3.568-7.931-7.93V58.476C71.129,54.114,74.698,50.544,79.06,50.544z"/>
					</g>
					<g id="XMLID_1510_">
						<path fill-rule="evenodd" clip-rule="evenodd" fill="#FFFFFF" d="M74.617,56.89h31.408c0.061,0,0.111,0.049,0.111,0.111
							v62.109c0,0.061-0.05,0.111-0.111,0.111H74.617c-0.062,0-0.112-0.051-0.112-0.111V57.001
							C74.505,56.938,74.555,56.89,74.617,56.89z"/>
					</g>
					<g id="XMLID_1509_">
						<path fill-rule="evenodd" clip-rule="evenodd" fill="#FFFFFF" d="M90.321,124.542c1.068,0,1.939-0.871,1.939-1.939
							c0-1.068-0.872-1.938-1.939-1.938c-1.067,0-1.939,0.869-1.939,1.938C88.382,123.671,89.253,124.542,90.321,124.542z"/>
					</g>
				</g>
			</g>
			<g id="XMLID_1502_" opacity="0.5">
				<g id="XMLID_1506_">
					<path fill-rule="evenodd" clip-rule="evenodd" fill="#333333" d="M96.004,66.575c0,3.139-2.544,5.685-5.683,5.685
						c-3.139,0-5.684-2.547-5.684-5.685c0-3.139,2.545-5.682,5.684-5.682C93.46,60.894,96.004,63.437,96.004,66.575z"/>
				</g>
				<g id="XMLID_1503_">
					<g id="XMLID_1505_">
						<path fill-rule="evenodd" clip-rule="evenodd" fill="#E1E5EA" d="M93.532,69.526c0-0.006,0-0.012,0-0.02
							c0-0.777-0.279-1.492-0.74-2.047c-0.7-0.287-1.551-0.455-2.47-0.455c-0.92,0-1.771,0.168-2.47,0.455
							c-0.462,0.555-0.742,1.27-0.742,2.047c0,0.008,0,0.014,0,0.02H93.532z"/>
					</g>
					<g id="XMLID_1504_">
						<path fill-rule="evenodd" clip-rule="evenodd" fill="#E1E5EA" d="M91.867,65.173c0,0.854-0.692,1.547-1.546,1.547
							c-0.854,0-1.546-0.693-1.546-1.547c0-0.854,0.692-1.547,1.546-1.547C91.175,63.626,91.867,64.319,91.867,65.173z"/>
					</g>
				</g>
			</g>
			<g id="XMLID_1497_">
				<g id="XMLID_1501_">
					
						<rect x="85.073" y="66.375" transform="matrix(-1.836970e-16 1 -1 -1.836970e-16 163.7714 -10.8945)" fill-rule="evenodd" clip-rule="evenodd" fill="#E1E5EA" width="4.519" height="20.126"/>
				</g>
				<g id="XMLID_1500_">
					<rect x="77.797" y="74.706" fill-rule="evenodd" clip-rule="evenodd" fill="#FFFFFF" width="19.072" height="3.467"/>
				</g>
				<g id="XMLID_1499_">
					
						<rect x="98.3" y="73.626" transform="matrix(-1.836970e-16 1 -1 -1.836970e-16 176.9982 -24.1214)" fill-rule="evenodd" clip-rule="evenodd" fill="#E1E5EA" width="4.519" height="5.624"/>
				</g>
				<g id="XMLID_1498_">
					<rect x="98.275" y="74.706" fill-rule="evenodd" clip-rule="evenodd" fill="#105BB4" width="4.57" height="3.467"/>
				</g>
			</g>
			<g id="XMLID_1488_">
				<g id="XMLID_1491_">
					<g id="XMLID_1492_">
						<path fill="#FFFFFF" d="M101.246,75.935c0.057,0.594-0.379,1.121-0.974,1.178c-0.594,0.057-1.123-0.379-1.179-0.973
							c-0.057-0.594,0.38-1.123,0.974-1.18C100.661,74.903,101.19,75.339,101.246,75.935z M99.517,76.099
							c0.035,0.361,0.355,0.625,0.716,0.592c0.36-0.035,0.625-0.355,0.591-0.717c-0.035-0.359-0.355-0.625-0.716-0.59
							C99.748,75.417,99.483,75.739,99.517,76.099z"/>
					</g>
				</g>
				<g id="XMLID_1489_">
					<g id="XMLID_1490_">
						<path fill="#FFFFFF" d="M102.03,77.69c0.006,0.061-0.015,0.125-0.062,0.172c-0.083,0.082-0.219,0.08-0.301-0.004l-0.963-0.98
							c-0.083-0.084-0.082-0.219,0.002-0.301c0.084-0.084,0.219-0.082,0.302,0.002l0.963,0.982
							C102.005,77.597,102.026,77.642,102.03,77.69z"/>
					</g>
				</g>
			</g>
			<g>
				<g>
					<g id="XMLID_1479_">
						<g id="XMLID_1487_">
							<path fill-rule="evenodd" clip-rule="evenodd" fill="#FF916E" d="M84.037,90.526c2.297,0,4.171-1.875,4.171-4.17
								c0-2.299-1.874-4.172-4.171-4.172c-2.296,0-4.17,1.873-4.17,4.172C79.867,88.651,81.741,90.526,84.037,90.526z"/>
						</g>
						<g id="XMLID_1480_">
							<g id="XMLID_1486_">
								<polygon fill-rule="evenodd" clip-rule="evenodd" fill="#CECECE" points="86.638,85.272 84.037,87.149 81.437,85.272 
									84.037,83.396 								"/>
							</g>
							<g id="XMLID_1485_">
								<polygon fill-rule="evenodd" clip-rule="evenodd" fill="#EAE9E8" points="81.437,88.343 86.638,88.343 86.638,85.272 
									84.037,87.149 81.437,85.272 								"/>
							</g>
							<g id="XMLID_1484_">
								<polygon fill-rule="evenodd" clip-rule="evenodd" fill="#FFFDFA" points="81.437,88.343 86.638,88.343 84.511,86.808 
									83.563,86.808 83.563,86.808 								"/>
							</g>
						</g>
					</g>
					<g id="XMLID_1362_">
						<g id="XMLID_1478_">
							<path fill-rule="evenodd" clip-rule="evenodd" fill="#ADEBF6" d="M84.037,101.519c2.297,0,4.171-1.873,4.171-4.17
								c0-2.297-1.874-4.172-4.171-4.172c-2.296,0-4.17,1.875-4.17,4.172C79.867,99.646,81.741,101.519,84.037,101.519z"/>
						</g>
						<g id="XMLID_1364_">
							<g id="XMLID_1366_">
								<path fill="#FFFDFA" d="M82.338,99.53c0.415,0,0.752-0.338,0.752-0.754l0,0v-2.791h2.416v1.391
									c-0.086-0.035-0.181-0.055-0.279-0.055c-0.416,0-0.753,0.338-0.753,0.752c0,0.416,0.337,0.754,0.753,0.754
									c0.414,0,0.752-0.338,0.752-0.754l0,0l0,0v-2.088V95.04h-0.473H83.09h-0.472v0.945v2.094
									c-0.087-0.033-0.181-0.055-0.28-0.055c-0.416,0-0.752,0.338-0.752,0.752C81.586,99.192,81.923,99.53,82.338,99.53z"/>
							</g>
						</g>
					</g>
					<g id="XMLID_1349_">
						<g id="XMLID_1360_">
							<path fill-rule="evenodd" clip-rule="evenodd" fill="#FF916E" d="M84.037,112.513c2.297,0,4.171-1.875,4.171-4.172
								c0-2.297-1.874-4.17-4.171-4.17c-2.296,0-4.17,1.873-4.17,4.17C79.867,110.638,81.741,112.513,84.037,112.513z"/>
						</g>
						<g id="XMLID_1351_">
							<g id="XMLID_1357_">
								<path fill="#FFFFFF" d="M85.115,110.663c-0.096,0.094-0.25,0.094-0.345,0l-0.088-0.088
									c-0.094-0.096-0.282-0.172-0.416-0.172h-1.897c-0.134,0-0.281-0.104-0.327-0.23l-0.803-2.229
									c-0.105-0.295,0.063-0.535,0.375-0.535h1.579c0.068-0.229,0.031-0.412-0.035-0.512c-0.098-0.146-0.364-0.418-0.315-0.824
									c0.016-0.133,0.096-0.34,0.177-0.449c0.235-0.307,0.576-0.234,0.576,0.041c0,0.328-0.173,0.654,0.443,1.059
									c0.617,0.404,1.038,1.195,1.038,1.199c0,0.002,0.077,0.082,0.172,0.178l1.041,1.041c0.095,0.096,0.095,0.25,0,0.344
									L85.115,110.663z"/>
							</g>
							<g id="XMLID_1355_">
								
									<rect x="85.024" y="110.175" transform="matrix(0.7072 -0.707 0.707 0.7072 -52.8713 93.1342)" fill="#FFFFFF" width="1.973" height="0.453"/>
							</g>
						</g>
					</g>
				</g>
				<g>
					<g id="XMLID_1345_">
						<g id="XMLID_1348_">
							<path fill-rule="evenodd" clip-rule="evenodd" fill="#FFDB76" d="M96.605,112.513c2.297,0,4.17-1.875,4.17-4.172
								c0-2.297-1.873-4.17-4.17-4.17c-2.297,0-4.171,1.873-4.171,4.17C92.434,110.638,94.307,112.513,96.605,112.513z"/>
						</g>
						<g id="XMLID_1346_">
							<path fill="#FFFFFF" d="M99.122,109.542c0.074-0.244,0.113-0.496,0.113-0.754c0-1.449-1.18-2.633-2.632-2.641
								c-1.45,0.008-2.629,1.191-2.629,2.641c0,0.258,0.038,0.514,0.112,0.758c-0.033,0.021-0.056,0.057-0.056,0.098v0.141
								c0,0.066,0.053,0.119,0.119,0.119h0.29v0.258c0,0.301,0.354,0.543,0.793,0.549v-2.086c-0.383,0.004-0.701,0.189-0.776,0.438
								c-0.011,0.035-0.018,0.072-0.018,0.113v0.35h-0.29c-0.022,0-0.044,0.008-0.062,0.021v-0.195c0-0.074,0.011-0.146,0.032-0.215
								c0.049-0.164,0.153-0.307,0.294-0.416v-0.002c0.037-1.178,1.006-2.129,2.191-2.135c1.192,0.006,2.164,0.965,2.194,2.15
								c0.155,0.131,0.256,0.295,0.292,0.48c0.009,0.047,0.015,0.092,0.015,0.137v0.182c-0.012-0.004-0.025-0.008-0.038-0.008
								h-0.313v-0.35c0-0.025-0.003-0.049-0.007-0.07c-0.049-0.266-0.374-0.469-0.772-0.48v2.084c0.433-0.01,0.78-0.25,0.78-0.547
								v-0.258h0.313c0.065,0,0.119-0.053,0.119-0.119v-0.141C99.184,109.601,99.158,109.562,99.122,109.542z"/>
						</g>
					</g>
					<g id="XMLID_1092_">
						<g id="XMLID_1132_">
							<path fill-rule="evenodd" clip-rule="evenodd" fill="#297BB9" d="M96.605,82.185c-2.297,0-4.171,1.873-4.171,4.17
								s1.874,4.172,4.171,4.172c2.297,0,4.17-1.875,4.17-4.172S98.902,82.185,96.605,82.185z"/>
						</g>
						<g id="XMLID_1093_">
							<g id="XMLID_1104_">
								<g id="XMLID_1130_">
									<path fill="#FFFFFF" d="M98.553,86.614c0-0.004,0.001-0.006,0.001-0.01V84.36c0-0.162-0.134-0.295-0.297-0.295
										c-0.163,0-0.296,0.133-0.296,0.295v2.244c0,0.004,0.001,0.006,0.001,0.01H98.553z"/>
								</g>
								<g id="XMLID_1121_">
									<path fill="#FFFFFF" d="M97.961,87.366c0,0.004-0.001,0.006-0.001,0.01v0.973c0,0.164,0.133,0.297,0.296,0.297
										c0.164,0,0.297-0.133,0.297-0.297v-0.973c0-0.004-0.001-0.006-0.001-0.01H97.961z"/>
								</g>
								<g id="XMLID_1105_">
									<path fill="#FFFFFF" d="M98.659,87.228h-0.804c-0.135,0-0.245-0.109-0.245-0.244l0,0c0-0.135,0.11-0.244,0.245-0.244h0.804
										c0.135,0,0.245,0.109,0.245,0.244l0,0C98.904,87.118,98.794,87.228,98.659,87.228z"/>
								</g>
							</g>
							<g id="XMLID_1098_">
								<g id="XMLID_1101_">
									<path fill="#FFFFFF" d="M96.909,85.284c0-0.002,0.001-0.006,0.001-0.01V84.36c0-0.162-0.133-0.295-0.296-0.295
										c-0.164,0-0.296,0.133-0.296,0.295v0.914c0,0.004,0,0.008,0,0.01H96.909z"/>
								</g>
								<g id="XMLID_1100_">
									<path fill="#FFFFFF" d="M96.318,86.038c0,0.004,0,0.006,0,0.01v2.301c0,0.164,0.132,0.297,0.296,0.297
										c0.163,0,0.296-0.133,0.296-0.297v-2.301c0-0.004-0.001-0.006-0.001-0.01H96.318z"/>
								</g>
								<g id="XMLID_1099_">
									<path fill="#FFFFFF" d="M97.015,85.899h-0.804c-0.134,0-0.244-0.109-0.244-0.244l0,0c0-0.135,0.11-0.244,0.244-0.244h0.804
										c0.135,0,0.245,0.109,0.245,0.244l0,0C97.26,85.79,97.15,85.899,97.015,85.899z"/>
								</g>
							</g>
							<g id="XMLID_1094_">
								<g id="XMLID_1097_">
									<path fill="#FFFFFF" d="M95.248,86.046c0-0.004,0.001-0.008,0.001-0.012V84.36c0-0.162-0.133-0.295-0.297-0.295
										c-0.164,0-0.297,0.133-0.297,0.295v1.674c0,0.004,0.001,0.008,0.001,0.012H95.248z"/>
								</g>
								<g id="XMLID_1096_">
									<path fill="#FFFFFF" d="M94.657,86.798c0,0.002-0.001,0.004-0.001,0.008v1.543c0,0.164,0.133,0.297,0.297,0.297
										c0.163,0,0.297-0.133,0.297-0.297v-1.543c0-0.004-0.001-0.006-0.001-0.008H94.657z"/>
								</g>
								<g id="XMLID_1095_">
									<path fill="#FFFFFF" d="M95.354,86.659H94.55c-0.134,0-0.245-0.111-0.245-0.244l0,0c0-0.135,0.11-0.246,0.245-0.246h0.804
										c0.135,0,0.245,0.111,0.245,0.246l0,0C95.599,86.548,95.489,86.659,95.354,86.659z"/>
								</g>
							</g>
						</g>
					</g>
					<g>
						<g id="XMLID_1091_">
							<path fill-rule="evenodd" clip-rule="evenodd" fill="#FFDB76" d="M96.605,101.519c2.297,0,4.17-1.873,4.17-4.17
								c0-2.297-1.873-4.172-4.17-4.172c-2.297,0-4.171,1.875-4.171,4.172C92.434,99.646,94.307,101.519,96.605,101.519z"/>
						</g>
						<g id="XMLID_1086_">
							<g id="XMLID_1088_">
								<path fill-rule="evenodd" clip-rule="evenodd" fill="#FFFFFF" d="M96.605,94.024c-1.836,0-3.324,1.488-3.324,3.324
									c0,1.836,1.488,3.324,3.324,3.324c1.836,0,3.324-1.488,3.324-3.324C99.929,95.513,98.441,94.024,96.605,94.024z
									 M96.605,100.196c-1.573,0-2.848-1.275-2.848-2.848c0-1.572,1.275-2.848,2.848-2.848c1.573,0,2.848,1.275,2.848,2.848
									C99.452,98.921,98.178,100.196,96.605,100.196z"/>
							</g>
							<g id="XMLID_1087_">
								<path fill-rule="evenodd" clip-rule="evenodd" fill="#FFFFFF" d="M96.605,95.649c-0.936,0-1.7,0.762-1.7,1.699
									c0,0.936,0.764,1.699,1.7,1.699c0.937,0,1.7-0.764,1.7-1.699C98.305,96.411,97.541,95.649,96.605,95.649z"/>
							</g>
						</g>
					</g>
				</g>
			</g>
			<g>
				<path fill-rule="evenodd" clip-rule="evenodd" fill="#CCCBC9" d="M91.617,55.476h-2.593c-0.553,0-1.008-0.455-1.008-1.01l0,0
					c0-0.553,0.455-1.008,1.008-1.008h2.593c0.554,0,1.008,0.455,1.008,1.008l0,0C92.625,55.021,92.172,55.476,91.617,55.476z"/>
			</g>
		</g>
	</g>
</g>
</svg>
